<?xml version="1.0" encoding="utf-8"?>
<!-- Generator: Adobe Illustrator 19.1.0, SVG Export Plug-In . SVG Version: 6.00 Build 0)  -->
<!DOCTYPE svg PUBLIC "-//W3C//DTD SVG 1.1//EN" "http://www.w3.org/Graphics/SVG/1.1/DTD/svg11.dtd">
<svg version="1.1" xmlns="http://www.w3.org/2000/svg" xmlns:xlink="http://www.w3.org/1999/xlink" x="0px" y="0px"
	 viewBox="0 0 670 376" style="enable-background:new 0 0 670 376;" xml:space="preserve">
<style type="text/css">
	.st0{fill:#E9EAEA;}
	.st1{fill:none;stroke:#9AA2A8;stroke-miterlimit:10;}
	.st2{fill:#204056;}
	.st3{fill:#FFFFFF;}
	.st4{fill:#A7BBC6;}
	.st5{fill:#9AA2A8;}
</style>
<g id="BG">
	<rect class="st0" width="670" height="376"/>
</g>
<g id="CONTENT">
	<line class="st1" x1="130.5" y1="118" x2="130.5" y2="254"/>
	<line class="st1" x1="540.5" y1="118" x2="540.5" y2="210"/>
	<line class="st1" x1="335.5" y1="118" x2="335.5" y2="138"/>
	<path class="st2" d="M423,118H247c-1.1,0-2-0.9-2-2V72c0-1.1,0.9-2,2-2h176c1.1,0,2,0.9,2,2v44C425,117.1,424.1,118,423,118z"/>
	<path class="st2" d="M218,118H42c-1.1,0-2-0.9-2-2V72c0-1.1,0.9-2,2-2h176c1.1,0,2,0.9,2,2v44C220,117.1,219.1,118,218,118z"/>
	<path class="st2" d="M628,118H452c-1.1,0-2-0.9-2-2V72c0-1.1,0.9-2,2-2h176c1.1,0,2,0.9,2,2v44C630,117.1,629.1,118,628,118z"/>
	<g>
		<path class="st2" d="M52.8,59.2v-5.8c-0.3,0.2-0.5,0.4-0.8,0.6c-0.3,0.2-0.6,0.3-1.1,0.5v-0.8c0.7-0.3,1.3-0.7,1.9-1.2h0.9v6.8
			h1.8V60h-4.6v-0.8H52.8z"/>
	</g>
	<g>
		<path class="st2" d="M260.3,60h-4.6v-0.8c0-0.2,0-0.4,0.1-0.7s0.3-0.5,0.5-0.8c0.2-0.3,0.5-0.6,0.8-0.9l0.5-0.5
			c0.1-0.1,0.3-0.4,0.7-0.7c0.4-0.4,0.6-0.7,0.7-0.9c0.1-0.2,0.2-0.4,0.2-0.6c0-0.3-0.1-0.6-0.4-0.8c-0.3-0.2-0.6-0.3-0.9-0.3
			c-0.2,0-0.4,0-0.6,0.1c-0.2,0-0.4,0.1-0.6,0.1c-0.2,0.1-0.5,0.2-0.8,0.3v-0.8c0.4-0.2,0.8-0.3,1.2-0.4s0.8-0.1,1-0.1
			c0.4,0,0.8,0.1,1.1,0.2s0.6,0.3,0.7,0.6s0.2,0.6,0.2,0.9c0,0.3-0.1,0.7-0.3,1c-0.2,0.4-0.6,0.8-1.2,1.4l-0.6,0.6l-0.5,0.5
			c-0.3,0.3-0.5,0.6-0.7,0.9c-0.2,0.3-0.3,0.6-0.3,1h3.6V60z"/>
	</g>
	<g>
		<path class="st2" d="M460.7,59.9v-1c0.7,0.4,1.4,0.6,1.9,0.6c0.5,0,0.9-0.2,1.2-0.5s0.5-0.7,0.5-1.2c0-0.5-0.2-0.9-0.5-1.2
			c-0.4-0.3-1-0.5-1.8-0.5h-0.5v-0.8h0.7c0.6,0,1.1-0.1,1.4-0.4s0.4-0.6,0.4-0.9c0-0.3-0.1-0.6-0.3-0.8c-0.2-0.2-0.6-0.3-1.1-0.3
			c-0.5,0-1.1,0.2-1.7,0.5v-0.9c0.6-0.2,1.2-0.3,1.7-0.3c0.9,0,1.6,0.2,1.9,0.5c0.4,0.4,0.5,0.8,0.5,1.2c0,0.3-0.1,0.7-0.3,1
			s-0.5,0.6-1,0.8c0.4,0.1,0.8,0.3,1,0.5s0.4,0.4,0.5,0.7c0.1,0.3,0.2,0.5,0.2,0.9c0,0.7-0.3,1.3-0.8,1.8c-0.5,0.5-1.2,0.7-2,0.7
			c-0.2,0-0.5,0-0.8-0.1C461.5,60.1,461.1,60,460.7,59.9z"/>
	</g>
	<g>
		<path class="st3" d="M72.8,97.6v-4.7h-1.3v-0.8h1.3v-0.3c0-0.8,0.1-1.4,0.3-1.8s0.5-0.7,0.8-0.9c0.4-0.2,0.9-0.4,1.5-0.4
			c0.5,0,0.9,0,1.4,0.1v0.9c-0.5-0.2-1-0.3-1.4-0.3c-0.3,0-0.6,0.1-0.8,0.2s-0.4,0.3-0.6,0.6c-0.1,0.3-0.2,0.7-0.2,1.4v0.4h2.4v0.8
			h-2.4v4.7H72.8z"/>
		<path class="st3" d="M83,97.2c-0.8,0.4-1.6,0.6-2.3,0.6c-0.5,0-1-0.1-1.5-0.4c-0.4-0.3-0.8-0.7-1-1.2c-0.3-0.5-0.4-1-0.4-1.6
			c0-0.5,0.1-1.1,0.4-1.6s0.6-0.9,1-1.2s0.9-0.4,1.5-0.4c0.7,0,1.3,0.3,1.7,0.8c0.4,0.5,0.6,1.3,0.6,2.3v0.2H79
			c0,0.4,0.1,0.8,0.3,1.1c0.2,0.3,0.4,0.6,0.7,0.8s0.6,0.3,1,0.3c0.6,0,1.4-0.2,2.1-0.6V97.2z M79,94h3v-0.1c0-0.5-0.1-0.9-0.4-1.2
			c-0.2-0.3-0.6-0.4-1-0.4c-0.4,0-0.8,0.1-1,0.4C79.3,93,79.1,93.4,79,94z"/>
		<path class="st3" d="M89.6,97.3c-0.5,0.2-0.8,0.3-1,0.4c-0.2,0-0.4,0.1-0.6,0.1c-0.4,0-0.8-0.1-1.1-0.2s-0.6-0.4-0.8-0.7
			c-0.2-0.3-0.3-0.8-0.3-1.5v-2.4h-1.5v-0.8h1.5v-2.4h1v2.4h2.7v0.8h-2.7v2.4c0,0.5,0.1,0.8,0.2,1c0.1,0.2,0.3,0.3,0.5,0.4
			c0.2,0.1,0.4,0.1,0.7,0.1c0.5,0,1-0.2,1.5-0.5V97.3z"/>
		<path class="st3" d="M96.3,97.4c-0.7,0.2-1.3,0.3-1.9,0.3c-0.6,0-1.1-0.1-1.6-0.4c-0.5-0.3-0.8-0.7-1.1-1.1
			c-0.3-0.5-0.4-1-0.4-1.6c0-0.9,0.3-1.7,0.9-2.3c0.6-0.6,1.3-0.9,2.1-0.9c0.6,0,1.3,0.1,2,0.3v1c-0.7-0.3-1.3-0.5-1.9-0.5
			c-0.4,0-0.7,0.1-1,0.3c-0.3,0.2-0.6,0.5-0.7,0.8s-0.3,0.8-0.3,1.2c0,0.5,0.2,1.1,0.5,1.5c0.3,0.5,0.9,0.7,1.6,0.7
			c0.2,0,0.4,0,0.6,0c0.2,0,0.6-0.1,1.2-0.3V97.4z"/>
		<path class="st3" d="M97.8,97.6v-8.7h1v4c0.3-0.5,0.6-0.8,1-1.1s0.8-0.4,1.2-0.4c0.3,0,0.7,0.1,0.9,0.3c0.3,0.2,0.5,0.4,0.6,0.6
			c0.1,0.2,0.2,0.4,0.2,0.6c0,0.2,0,0.7,0,1.3v3.4h-1v-3.5c0-0.6,0-1-0.1-1.1c-0.1-0.2-0.2-0.3-0.3-0.5c-0.1-0.1-0.3-0.2-0.5-0.2
			c-0.4,0-0.7,0.2-1.1,0.5c-0.4,0.3-0.7,0.8-1,1.3v3.5H97.8z"/>
		<path class="st3" d="M116,97.3c-0.5,0.2-0.8,0.3-1,0.4c-0.2,0-0.4,0.1-0.6,0.1c-0.4,0-0.8-0.1-1.1-0.2s-0.6-0.4-0.8-0.7
			c-0.2-0.3-0.3-0.8-0.3-1.5v-2.4h-1.5v-0.8h1.5v-2.4h1v2.4h2.7v0.8h-2.7v2.4c0,0.5,0.1,0.8,0.2,1c0.1,0.2,0.3,0.3,0.5,0.4
			c0.2,0.1,0.4,0.1,0.7,0.1c0.5,0,1-0.2,1.5-0.5V97.3z"/>
		<path class="st3" d="M122.6,97.2c-0.8,0.4-1.6,0.6-2.3,0.6c-0.5,0-1-0.1-1.5-0.4c-0.4-0.3-0.8-0.7-1-1.2c-0.3-0.5-0.4-1-0.4-1.6
			c0-0.5,0.1-1.1,0.4-1.6s0.6-0.9,1-1.2s0.9-0.4,1.5-0.4c0.7,0,1.3,0.3,1.7,0.8c0.4,0.5,0.6,1.3,0.6,2.3v0.2h-4.1
			c0,0.4,0.1,0.8,0.3,1.1c0.2,0.3,0.4,0.6,0.7,0.8s0.6,0.3,1,0.3c0.6,0,1.4-0.2,2.1-0.6V97.2z M118.6,94h3v-0.1
			c0-0.5-0.1-0.9-0.4-1.2c-0.2-0.3-0.6-0.4-1-0.4c-0.4,0-0.8,0.1-1,0.4C119,93,118.7,93.4,118.6,94z"/>
		<path class="st3" d="M124.9,97.6h-1.2l2.4-3.1l-2.2-2.9h1.3l1.6,2l1.5-2h1.1l-2.1,2.8l2.5,3.2h-1.3l-1.8-2.4L124.9,97.6z"/>
		<path class="st3" d="M135.8,97.3c-0.5,0.2-0.8,0.3-1,0.4c-0.2,0-0.4,0.1-0.6,0.1c-0.4,0-0.8-0.1-1.1-0.2s-0.6-0.4-0.8-0.7
			c-0.2-0.3-0.3-0.8-0.3-1.5v-2.4h-1.5v-0.8h1.5v-2.4h1v2.4h2.7v0.8H133v2.4c0,0.5,0.1,0.8,0.2,1c0.1,0.2,0.3,0.3,0.5,0.4
			c0.2,0.1,0.4,0.1,0.7,0.1c0.5,0,1-0.2,1.5-0.5V97.3z"/>
		<path class="st3" d="M149.1,97.4c-0.7,0.2-1.3,0.3-1.9,0.3c-0.6,0-1.1-0.1-1.6-0.4c-0.5-0.3-0.8-0.7-1.1-1.1
			c-0.3-0.5-0.4-1-0.4-1.6c0-0.9,0.3-1.7,0.9-2.3c0.6-0.6,1.3-0.9,2.1-0.9c0.6,0,1.3,0.1,2,0.3v1c-0.7-0.3-1.3-0.5-1.9-0.5
			c-0.4,0-0.7,0.1-1,0.3c-0.3,0.2-0.6,0.5-0.7,0.8s-0.3,0.8-0.3,1.2c0,0.5,0.2,1.1,0.5,1.5c0.3,0.5,0.9,0.7,1.6,0.7
			c0.2,0,0.4,0,0.6,0c0.2,0,0.6-0.1,1.2-0.3V97.4z"/>
		<path class="st3" d="M153.1,97.7c-0.9,0-1.5-0.3-2.1-0.9c-0.5-0.6-0.8-1.4-0.8-2.3s0.3-1.7,0.8-2.3s1.2-0.9,2.1-0.9
			c0.9,0,1.5,0.3,2.1,0.9s0.8,1.4,0.8,2.3s-0.3,1.7-0.8,2.3C154.6,97.4,154,97.7,153.1,97.7z M153.1,96.9c0.5,0,1-0.2,1.3-0.6
			c0.3-0.4,0.5-1,0.5-1.7c0-0.7-0.2-1.3-0.5-1.7c-0.3-0.4-0.7-0.6-1.3-0.6c-0.5,0-1,0.2-1.3,0.6c-0.3,0.4-0.5,1-0.5,1.7
			c0,0.7,0.2,1.3,0.5,1.7C152.1,96.7,152.6,96.9,153.1,96.9z"/>
		<path class="st3" d="M157.2,97.6v-6h1v1.3c0.3-0.5,0.6-0.8,1-1.1s0.8-0.4,1.2-0.4c0.4,0,0.7,0.1,1,0.3c0.3,0.2,0.5,0.4,0.6,0.7
			c0.1,0.3,0.2,0.9,0.2,1.8v3.4h-1v-3.5c0-0.6,0-1-0.1-1.1c-0.1-0.2-0.2-0.3-0.3-0.5c-0.1-0.1-0.3-0.2-0.5-0.2
			c-0.4,0-0.7,0.2-1.1,0.5c-0.4,0.3-0.7,0.8-1,1.3v3.5H157.2z"/>
		<path class="st3" d="M168.9,97.3c-0.5,0.2-0.8,0.3-1,0.4c-0.2,0-0.4,0.1-0.6,0.1c-0.4,0-0.8-0.1-1.1-0.2s-0.6-0.4-0.8-0.7
			c-0.2-0.3-0.3-0.8-0.3-1.5v-2.4h-1.5v-0.8h1.5v-2.4h1v2.4h2.7v0.8H166v2.4c0,0.5,0.1,0.8,0.2,1c0.1,0.2,0.3,0.3,0.5,0.4
			c0.2,0.1,0.4,0.1,0.7,0.1c0.5,0,1-0.2,1.5-0.5V97.3z"/>
		<path class="st3" d="M175.4,97.2c-0.8,0.4-1.6,0.6-2.3,0.6c-0.5,0-1-0.1-1.5-0.4c-0.4-0.3-0.8-0.7-1-1.2c-0.3-0.5-0.4-1-0.4-1.6
			c0-0.5,0.1-1.1,0.4-1.6s0.6-0.9,1-1.2s0.9-0.4,1.5-0.4c0.7,0,1.3,0.3,1.7,0.8c0.4,0.5,0.6,1.3,0.6,2.3v0.2h-4.1
			c0,0.4,0.1,0.8,0.3,1.1c0.2,0.3,0.4,0.6,0.7,0.8s0.6,0.3,1,0.3c0.6,0,1.4-0.2,2.1-0.6V97.2z M171.4,94h3v-0.1
			c0-0.5-0.1-0.9-0.4-1.2c-0.2-0.3-0.6-0.4-1-0.4c-0.4,0-0.8,0.1-1,0.4C171.8,93,171.6,93.4,171.4,94z"/>
		<path class="st3" d="M177,97.6v-6h1v1.3c0.3-0.5,0.6-0.8,1-1.1s0.8-0.4,1.2-0.4c0.4,0,0.7,0.1,1,0.3c0.3,0.2,0.5,0.4,0.6,0.7
			c0.1,0.3,0.2,0.9,0.2,1.8v3.4h-1v-3.5c0-0.6,0-1-0.1-1.1c-0.1-0.2-0.2-0.3-0.3-0.5c-0.1-0.1-0.3-0.2-0.5-0.2
			c-0.4,0-0.7,0.2-1.1,0.5c-0.4,0.3-0.7,0.8-1,1.3v3.5H177z"/>
		<path class="st3" d="M188.7,97.3c-0.5,0.2-0.8,0.3-1,0.4c-0.2,0-0.4,0.1-0.6,0.1c-0.4,0-0.8-0.1-1.1-0.2s-0.6-0.4-0.8-0.7
			c-0.2-0.3-0.3-0.8-0.3-1.5v-2.4h-1.5v-0.8h1.5v-2.4h1v2.4h2.7v0.8h-2.7v2.4c0,0.5,0.1,0.8,0.2,1c0.1,0.2,0.3,0.3,0.5,0.4
			c0.2,0.1,0.4,0.1,0.7,0.1c0.5,0,1-0.2,1.5-0.5V97.3z"/>
	</g>
	<g>
		<path class="st3" d="M270.5,96.2c-0.3,0.5-0.7,0.9-1.1,1.1c-0.4,0.3-0.8,0.4-1.2,0.4c-0.5,0-1-0.2-1.4-0.6s-0.6-1.1-0.6-2
			c0-0.7,0.1-1.3,0.4-1.9c0.3-0.5,0.6-1,1.1-1.3c0.4-0.3,1-0.5,1.7-0.5c0.2,0,0.5,0,0.9,0.1c0.1,0,0.1,0,0.3,0h1v4.2
			c0,1,0,1.6,0,1.9c0,0.2-0.1,0.5-0.1,0.7c-0.1,0.5-0.5,1-1,1.3s-1.1,0.5-1.9,0.5c-0.7,0-1.5-0.2-2.2-0.6v-1c0.3,0.2,0.6,0.4,1,0.5
			c0.4,0.1,0.8,0.2,1.2,0.2c0.3,0,0.6,0,0.9-0.1s0.5-0.2,0.7-0.4s0.3-0.4,0.3-0.6c0.1-0.2,0.1-0.6,0.1-1V96.2z M270.5,95v-2.6
			c-0.4-0.1-0.7-0.1-1-0.1c-0.6,0-1.1,0.2-1.5,0.7c-0.4,0.5-0.6,1.1-0.6,1.9c0,0.6,0.1,1,0.3,1.3c0.2,0.3,0.5,0.5,0.8,0.5
			c0.3,0,0.7-0.2,1-0.5C269.9,96,270.2,95.6,270.5,95z"/>
		<path class="st3" d="M278.1,97.2c-0.8,0.4-1.6,0.6-2.3,0.6c-0.5,0-1-0.1-1.5-0.4c-0.4-0.3-0.8-0.7-1-1.2c-0.3-0.5-0.4-1-0.4-1.6
			c0-0.5,0.1-1.1,0.4-1.6s0.6-0.9,1-1.2s0.9-0.4,1.5-0.4c0.7,0,1.3,0.3,1.7,0.8c0.4,0.5,0.6,1.3,0.6,2.3v0.2h-4.1
			c0,0.4,0.1,0.8,0.3,1.1c0.2,0.3,0.4,0.6,0.7,0.8s0.6,0.3,1,0.3c0.6,0,1.4-0.2,2.1-0.6V97.2z M274.1,94h3v-0.1
			c0-0.5-0.1-0.9-0.4-1.2c-0.2-0.3-0.6-0.4-1-0.4c-0.4,0-0.8,0.1-1,0.4C274.4,93,274.2,93.4,274.1,94z"/>
		<path class="st3" d="M279.7,97.6v-6h1v1.3c0.3-0.5,0.6-0.8,1-1.1s0.8-0.4,1.2-0.4c0.4,0,0.7,0.1,1,0.3c0.3,0.2,0.5,0.4,0.6,0.7
			c0.1,0.3,0.2,0.9,0.2,1.8v3.4h-1v-3.5c0-0.6,0-1-0.1-1.1c-0.1-0.2-0.2-0.3-0.3-0.5c-0.1-0.1-0.3-0.2-0.5-0.2
			c-0.4,0-0.7,0.2-1.1,0.5c-0.4,0.3-0.7,0.8-1,1.3v3.5H279.7z"/>
		<path class="st3" d="M291.3,97.2c-0.8,0.4-1.6,0.6-2.3,0.6c-0.5,0-1-0.1-1.5-0.4c-0.4-0.3-0.8-0.7-1-1.2c-0.3-0.5-0.4-1-0.4-1.6
			c0-0.5,0.1-1.1,0.4-1.6s0.6-0.9,1-1.2s0.9-0.4,1.5-0.4c0.7,0,1.3,0.3,1.7,0.8c0.4,0.5,0.6,1.3,0.6,2.3v0.2h-4.1
			c0,0.4,0.1,0.8,0.3,1.1c0.2,0.3,0.4,0.6,0.7,0.8s0.6,0.3,1,0.3c0.6,0,1.4-0.2,2.1-0.6V97.2z M287.3,94h3v-0.1
			c0-0.5-0.1-0.9-0.4-1.2c-0.2-0.3-0.6-0.4-1-0.4c-0.4,0-0.8,0.1-1,0.4C287.6,93,287.4,93.4,287.3,94z"/>
		<path class="st3" d="M293.4,97.6v-6h1v1.3c0.3-0.5,0.7-0.9,1.1-1.1c0.4-0.2,0.9-0.4,1.3-0.4c0.4,0,0.7,0.1,1.1,0.2v2.2h-1v-1.4
			c-0.2,0-0.3,0-0.4,0c-0.4,0-0.7,0.1-1.1,0.4s-0.7,0.7-1,1.3v3.5H293.4z"/>
		<path class="st3" d="M303.5,96.2c-0.3,0.5-0.7,0.9-1.1,1.1c-0.4,0.3-0.8,0.4-1.2,0.4c-0.5,0-1-0.2-1.4-0.6s-0.6-1.1-0.6-2
			c0-0.7,0.1-1.3,0.4-1.9c0.3-0.5,0.6-1,1.1-1.3c0.4-0.3,1-0.5,1.7-0.5c0.2,0,0.5,0,0.9,0.1c0.1,0,0.1,0,0.3,0h1v4.2
			c0,0.7,0.1,1.3,0.2,1.8h-1C303.6,97.3,303.5,96.8,303.5,96.2z M303.5,95v-2.6c-0.4-0.1-0.7-0.1-1-0.1c-0.6,0-1.1,0.2-1.5,0.7
			c-0.4,0.5-0.6,1.1-0.6,1.9c0,0.6,0.1,1,0.3,1.3c0.2,0.3,0.5,0.5,0.8,0.5c0.3,0,0.7-0.2,1-0.5C302.8,96,303.2,95.6,303.5,95z"/>
		<path class="st3" d="M311.1,97.3c-0.5,0.2-0.8,0.3-1,0.4c-0.2,0-0.4,0.1-0.6,0.1c-0.4,0-0.8-0.1-1.1-0.2s-0.6-0.4-0.8-0.7
			c-0.2-0.3-0.3-0.8-0.3-1.5v-2.4h-1.5v-0.8h1.5v-2.4h1v2.4h2.7v0.8h-2.7v2.4c0,0.5,0.1,0.8,0.2,1c0.1,0.2,0.3,0.3,0.5,0.4
			c0.2,0.1,0.4,0.1,0.7,0.1c0.5,0,1-0.2,1.5-0.5V97.3z"/>
		<path class="st3" d="M317.7,97.2c-0.8,0.4-1.6,0.6-2.3,0.6c-0.5,0-1-0.1-1.5-0.4c-0.4-0.3-0.8-0.7-1-1.2c-0.3-0.5-0.4-1-0.4-1.6
			c0-0.5,0.1-1.1,0.4-1.6s0.6-0.9,1-1.2s0.9-0.4,1.5-0.4c0.7,0,1.3,0.3,1.7,0.8c0.4,0.5,0.6,1.3,0.6,2.3v0.2h-4.1
			c0,0.4,0.1,0.8,0.3,1.1c0.2,0.3,0.4,0.6,0.7,0.8s0.6,0.3,1,0.3c0.6,0,1.4-0.2,2.1-0.6V97.2z M313.7,94h3v-0.1
			c0-0.5-0.1-0.9-0.4-1.2c-0.2-0.3-0.6-0.4-1-0.4c-0.4,0-0.8,0.1-1,0.4C314.1,93,313.8,93.4,313.7,94z"/>
		<path class="st3" d="M326.3,97.6h-0.9v-8.3h1.1l1.9,5.5l1.9-5.5h1.1v8.3h-1v-5.3l0-0.7h0l-0.2,0.7l-1.3,3.6h-1.1l-1.3-3.6
			l-0.2-0.7h0l0,0.7V97.6z"/>
		<path class="st3" d="M336.5,96.2c-0.3,0.5-0.7,0.9-1.1,1.1c-0.4,0.3-0.8,0.4-1.2,0.4c-0.5,0-1-0.2-1.4-0.6s-0.6-1.1-0.6-2
			c0-0.7,0.1-1.3,0.4-1.9c0.3-0.5,0.6-1,1.1-1.3c0.4-0.3,1-0.5,1.7-0.5c0.2,0,0.5,0,0.9,0.1c0.1,0,0.1,0,0.3,0h1v4.2
			c0,0.7,0.1,1.3,0.2,1.8h-1C336.6,97.3,336.5,96.8,336.5,96.2z M336.5,95v-2.6c-0.4-0.1-0.7-0.1-1-0.1c-0.6,0-1.1,0.2-1.5,0.7
			c-0.4,0.5-0.6,1.1-0.6,1.9c0,0.6,0.1,1,0.3,1.3c0.2,0.3,0.5,0.5,0.8,0.5c0.3,0,0.7-0.2,1-0.5C335.8,96,336.2,95.6,336.5,95z"/>
		<path class="st3" d="M339.6,97.6v-6h1v1.3c0.3-0.5,0.7-0.9,1.1-1.1c0.4-0.2,0.9-0.4,1.3-0.4c0.4,0,0.7,0.1,1.1,0.2v2.2h-1v-1.4
			c-0.2,0-0.3,0-0.4,0c-0.4,0-0.7,0.1-1.1,0.4c-0.4,0.3-0.7,0.7-1,1.3v3.5H339.6z"/>
		<path class="st3" d="M346,97.6v-8.7h1v5.4l2.9-2.8h1.3l-2.9,2.7l2.9,3.2h-1.4l-2.9-3.2v3.2H346z"/>
		<path class="st3" d="M354.8,97.7c-0.9,0-1.5-0.3-2.1-0.9c-0.5-0.6-0.8-1.4-0.8-2.3s0.3-1.7,0.8-2.3c0.5-0.6,1.2-0.9,2.1-0.9
			c0.9,0,1.5,0.3,2.1,0.9c0.5,0.6,0.8,1.4,0.8,2.3s-0.3,1.7-0.8,2.3C356.3,97.4,355.7,97.7,354.8,97.7z M354.8,96.9
			c0.5,0,1-0.2,1.3-0.6s0.5-1,0.5-1.7c0-0.7-0.2-1.3-0.5-1.7s-0.7-0.6-1.3-0.6c-0.5,0-1,0.2-1.3,0.6c-0.3,0.4-0.5,1-0.5,1.7
			c0,0.7,0.2,1.3,0.5,1.7C353.8,96.7,354.3,96.9,354.8,96.9z"/>
		<path class="st3" d="M360.9,97.6l-2.6-6h1.1l2.1,4.8l2.1-4.8h1l-2.6,6H360.9z"/>
		<path class="st3" d="M377.1,97.5c-0.6,0.2-1.2,0.3-1.7,0.3c-0.7,0-1.3-0.2-1.8-0.5c-0.5-0.3-1-0.9-1.3-1.6
			c-0.3-0.7-0.5-1.5-0.5-2.3c0-0.9,0.2-1.6,0.5-2.3s0.7-1.2,1.3-1.6s1.2-0.5,1.8-0.5c0.5,0,1.1,0.1,1.7,0.3v1
			c-0.6-0.3-1.1-0.5-1.7-0.5c-0.4,0-0.8,0.1-1.2,0.4s-0.6,0.7-0.9,1.3c-0.2,0.6-0.3,1.2-0.3,1.9c0,0.7,0.1,1.3,0.3,1.9
			c0.2,0.6,0.5,1,0.9,1.3c0.4,0.3,0.7,0.4,1.2,0.4c0.6,0,1.1-0.2,1.7-0.5V97.5z"/>
		<path class="st3" d="M378.7,97.6v-8.7h1v4c0.3-0.5,0.6-0.8,1-1.1c0.4-0.3,0.8-0.4,1.2-0.4c0.3,0,0.7,0.1,0.9,0.3
			c0.3,0.2,0.5,0.4,0.6,0.6c0.1,0.2,0.2,0.4,0.2,0.6c0,0.2,0,0.7,0,1.3v3.4h-1v-3.5c0-0.6,0-1-0.1-1.1c-0.1-0.2-0.2-0.3-0.3-0.5
			s-0.3-0.2-0.5-0.2c-0.4,0-0.7,0.2-1.1,0.5c-0.4,0.3-0.7,0.8-1,1.3v3.5H378.7z"/>
		<path class="st3" d="M389.3,96.2c-0.3,0.5-0.7,0.9-1.1,1.1c-0.4,0.3-0.8,0.4-1.2,0.4c-0.5,0-1-0.2-1.4-0.6s-0.6-1.1-0.6-2
			c0-0.7,0.1-1.3,0.4-1.9c0.3-0.5,0.6-1,1.1-1.3c0.4-0.3,1-0.5,1.7-0.5c0.2,0,0.5,0,0.9,0.1c0.1,0,0.1,0,0.3,0h1v4.2
			c0,0.7,0.1,1.3,0.2,1.8h-1C389.4,97.3,389.3,96.8,389.3,96.2z M389.3,95v-2.6c-0.4-0.1-0.7-0.1-1-0.1c-0.6,0-1.1,0.2-1.5,0.7
			c-0.4,0.5-0.6,1.1-0.6,1.9c0,0.6,0.1,1,0.3,1.3c0.2,0.3,0.5,0.5,0.8,0.5c0.3,0,0.7-0.2,1-0.5C388.7,96,389,95.6,389.3,95z"/>
		<path class="st3" d="M393.6,97.6v-5.2H392v-0.8h2.7v5.2h1.7v0.8H393.6z M393.5,89.4c0-0.2,0.1-0.4,0.2-0.5
			c0.2-0.1,0.3-0.2,0.4-0.2c0.1,0,0.3,0.1,0.4,0.2c0.2,0.1,0.2,0.3,0.2,0.5c0,0.2-0.1,0.4-0.2,0.5c-0.2,0.1-0.3,0.2-0.4,0.2
			c-0.1,0-0.3-0.1-0.4-0.2C393.5,89.8,393.5,89.6,393.5,89.4z"/>
		<path class="st3" d="M398.5,97.6v-6h1v1.3c0.3-0.5,0.6-0.8,1-1.1s0.8-0.4,1.2-0.4c0.4,0,0.7,0.1,1,0.3c0.3,0.2,0.5,0.4,0.6,0.7
			s0.2,0.9,0.2,1.8v3.4h-1v-3.5c0-0.6,0-1-0.1-1.1c-0.1-0.2-0.2-0.3-0.3-0.5s-0.3-0.2-0.5-0.2c-0.4,0-0.7,0.2-1.1,0.5
			c-0.4,0.3-0.7,0.8-1,1.3v3.5H398.5z"/>
	</g>
	<g>
		<path class="st3" d="M483.9,97.7c-0.9,0-1.5-0.3-2.1-0.9c-0.5-0.6-0.8-1.4-0.8-2.3s0.3-1.7,0.8-2.3c0.5-0.6,1.2-0.9,2.1-0.9
			c0.9,0,1.5,0.3,2.1,0.9c0.5,0.6,0.8,1.4,0.8,2.3s-0.3,1.7-0.8,2.3C485.4,97.4,484.7,97.7,483.9,97.7z M483.9,96.9
			c0.5,0,1-0.2,1.3-0.6c0.3-0.4,0.5-1,0.5-1.7c0-0.7-0.2-1.3-0.5-1.7c-0.3-0.4-0.7-0.6-1.3-0.6c-0.5,0-1,0.2-1.3,0.6s-0.5,1-0.5,1.7
			c0,0.7,0.2,1.3,0.5,1.7S483.4,96.9,483.9,96.9z"/>
		<path class="st3" d="M493,91.6v6h-1v-1.3c-0.3,0.5-0.7,0.9-1.1,1.1c-0.4,0.2-0.8,0.4-1.2,0.4c-0.4,0-0.7-0.1-1-0.3
			c-0.3-0.2-0.5-0.4-0.6-0.7c-0.1-0.3-0.2-0.9-0.2-1.8v-3.4h1v3.5c0,0.6,0,1,0.1,1.1c0.1,0.2,0.2,0.3,0.3,0.5s0.3,0.2,0.5,0.2
			c0.4,0,0.7-0.2,1.1-0.5c0.4-0.3,0.7-0.7,1-1.3v-3.5H493z"/>
		<path class="st3" d="M499.6,97.3c-0.5,0.2-0.8,0.3-1,0.4c-0.2,0-0.4,0.1-0.6,0.1c-0.4,0-0.8-0.1-1.1-0.2c-0.3-0.2-0.6-0.4-0.8-0.7
			c-0.2-0.3-0.3-0.8-0.3-1.5v-2.4h-1.5v-0.8h1.5v-2.4h1v2.4h2.7v0.8h-2.7v2.4c0,0.5,0.1,0.8,0.2,1c0.1,0.2,0.3,0.3,0.5,0.4
			s0.4,0.1,0.7,0.1c0.5,0,1-0.2,1.5-0.5V97.3z"/>
		<path class="st3" d="M502.1,92.9c0.3-0.5,0.7-0.9,1.1-1.1c0.4-0.3,0.8-0.4,1.2-0.4c0.5,0,1,0.2,1.4,0.6c0.4,0.4,0.6,1.1,0.6,2
			c0,0.7-0.1,1.3-0.4,1.9c-0.3,0.5-0.6,1-1.1,1.3c-0.4,0.3-1,0.5-1.6,0.5c-0.2,0-0.5,0-0.9-0.1c-0.1,0-0.1,0-0.3,0v2.3h-1v-8.3h1
			V92.9z M502.1,94.1v2.6c0.4,0.1,0.7,0.1,1,0.1c0.6,0,1.1-0.2,1.5-0.7c0.4-0.5,0.6-1.1,0.6-1.9c0-0.6-0.1-1-0.3-1.3
			c-0.2-0.3-0.5-0.5-0.8-0.5c-0.3,0-0.7,0.2-1,0.5S502.5,93.6,502.1,94.1z"/>
		<path class="st3" d="M512.8,91.6v6h-1v-1.3c-0.3,0.5-0.7,0.9-1.1,1.1c-0.4,0.2-0.8,0.4-1.2,0.4c-0.4,0-0.7-0.1-1-0.3
			c-0.3-0.2-0.5-0.4-0.6-0.7c-0.1-0.3-0.2-0.9-0.2-1.8v-3.4h1v3.5c0,0.6,0,1,0.1,1.1c0.1,0.2,0.2,0.3,0.3,0.5
			c0.1,0.1,0.3,0.2,0.5,0.2c0.4,0,0.7-0.2,1.1-0.5c0.4-0.3,0.7-0.7,1-1.3v-3.5H512.8z"/>
		<path class="st3" d="M519.4,97.3c-0.5,0.2-0.8,0.3-1,0.4c-0.2,0-0.4,0.1-0.6,0.1c-0.4,0-0.8-0.1-1.1-0.2c-0.3-0.2-0.6-0.4-0.8-0.7
			c-0.2-0.3-0.3-0.8-0.3-1.5v-2.4h-1.5v-0.8h1.5v-2.4h1v2.4h2.7v0.8h-2.7v2.4c0,0.5,0.1,0.8,0.2,1c0.1,0.2,0.3,0.3,0.5,0.4
			c0.2,0.1,0.4,0.1,0.7,0.1c0.5,0,1-0.2,1.5-0.5V97.3z"/>
		<path class="st3" d="M528.1,97.6v-6h1v1.3c0.3-0.5,0.7-0.9,1.1-1.1c0.4-0.2,0.9-0.4,1.3-0.4c0.4,0,0.7,0.1,1.1,0.2v2.2h-1v-1.4
			c-0.2,0-0.3,0-0.4,0c-0.4,0-0.7,0.1-1.1,0.4c-0.4,0.3-0.7,0.7-1,1.3v3.5H528.1z"/>
		<path class="st3" d="M538.2,96.2c-0.3,0.5-0.7,0.9-1.1,1.1c-0.4,0.3-0.8,0.4-1.2,0.4c-0.5,0-1-0.2-1.4-0.6s-0.6-1.1-0.6-2
			c0-0.7,0.1-1.3,0.4-1.9c0.3-0.5,0.6-1,1.1-1.3c0.4-0.3,1-0.5,1.7-0.5c0.2,0,0.5,0,0.9,0.1c0.1,0,0.1,0,0.3,0h1v4.2
			c0,0.7,0.1,1.3,0.2,1.8h-1C538.3,97.3,538.2,96.8,538.2,96.2z M538.2,95v-2.6c-0.4-0.1-0.7-0.1-1-0.1c-0.6,0-1.1,0.2-1.5,0.7
			c-0.4,0.5-0.6,1.1-0.6,1.9c0,0.6,0.1,1,0.3,1.3c0.2,0.3,0.5,0.5,0.8,0.5c0.3,0,0.7-0.2,1-0.5C537.5,96,537.9,95.6,538.2,95z"/>
		<path class="st3" d="M540.8,97.6v-6h1v1.3c0.3-0.5,0.6-0.8,1-1.1c0.4-0.3,0.8-0.4,1.2-0.4c0.4,0,0.7,0.1,1,0.3
			c0.3,0.2,0.5,0.4,0.6,0.7s0.2,0.9,0.2,1.8v3.4h-1v-3.5c0-0.6,0-1-0.1-1.1c-0.1-0.2-0.2-0.3-0.3-0.5s-0.3-0.2-0.5-0.2
			c-0.4,0-0.7,0.2-1.1,0.5c-0.4,0.3-0.7,0.8-1,1.3v3.5H540.8z"/>
		<path class="st3" d="M551.4,96.2c-0.3,0.5-0.7,0.9-1.1,1.1c-0.4,0.3-0.8,0.4-1.2,0.4c-0.5,0-1-0.2-1.4-0.6c-0.4-0.4-0.6-1.1-0.6-2
			c0-0.7,0.1-1.3,0.4-1.9c0.3-0.5,0.6-1,1.1-1.3c0.4-0.3,1-0.5,1.7-0.5c0.2,0,0.5,0,0.9,0.1c0.1,0,0.1,0,0.3,0v-2.7h1v8.7h-1V96.2z
			 M551.4,95v-2.6c-0.4-0.1-0.7-0.1-1-0.1c-0.6,0-1.1,0.2-1.5,0.7c-0.4,0.5-0.6,1.1-0.6,1.9c0,0.6,0.1,1,0.3,1.3
			c0.2,0.3,0.5,0.5,0.8,0.5c0.3,0,0.7-0.2,1-0.5C550.8,96,551.1,95.6,551.4,95z"/>
		<path class="st3" d="M556.5,97.7c-0.9,0-1.5-0.3-2.1-0.9c-0.5-0.6-0.8-1.4-0.8-2.3s0.3-1.7,0.8-2.3c0.5-0.6,1.2-0.9,2.1-0.9
			c0.9,0,1.5,0.3,2.1,0.9c0.5,0.6,0.8,1.4,0.8,2.3s-0.3,1.7-0.8,2.3C558,97.4,557.4,97.7,556.5,97.7z M556.5,96.9
			c0.5,0,1-0.2,1.3-0.6s0.5-1,0.5-1.7c0-0.7-0.2-1.3-0.5-1.7s-0.7-0.6-1.3-0.6c-0.5,0-1,0.2-1.3,0.6c-0.3,0.4-0.5,1-0.5,1.7
			c0,0.7,0.2,1.3,0.5,1.7C555.5,96.7,556,96.9,556.5,96.9z"/>
		<path class="st3" d="M560.2,97.6v-6h0.9V93c0.3-0.6,0.5-1,0.8-1.2c0.2-0.2,0.5-0.3,0.7-0.3c0.3,0,0.5,0.1,0.7,0.3
			c0.2,0.2,0.3,0.6,0.3,1V93c0.1-0.4,0.3-0.7,0.4-0.9c0.2-0.2,0.3-0.4,0.5-0.5c0.2-0.1,0.4-0.2,0.6-0.2c0.3,0,0.5,0.1,0.7,0.3
			s0.3,0.7,0.3,1.3v4.5h-0.9v-4.1c0-0.3,0-0.6,0-0.7c0-0.1-0.1-0.2-0.1-0.3s-0.1-0.1-0.2-0.1c-0.2,0-0.4,0.1-0.6,0.4
			c-0.2,0.3-0.4,0.8-0.7,1.4v3.3h-0.8v-4.1c0-0.5-0.1-0.8-0.2-0.9c-0.1-0.1-0.2-0.1-0.3-0.1c-0.2,0-0.4,0.2-0.6,0.5
			c-0.2,0.3-0.4,0.7-0.6,1.2v3.5H560.2z"/>
		<path class="st3" d="M578.9,97.3c-0.5,0.2-0.8,0.3-1,0.4c-0.2,0-0.4,0.1-0.6,0.1c-0.4,0-0.8-0.1-1.1-0.2c-0.3-0.2-0.6-0.4-0.8-0.7
			c-0.2-0.3-0.3-0.8-0.3-1.5v-2.4h-1.5v-0.8h1.5v-2.4h1v2.4h2.7v0.8H576v2.4c0,0.5,0.1,0.8,0.2,1c0.1,0.2,0.3,0.3,0.5,0.4
			s0.4,0.1,0.7,0.1c0.5,0,1-0.2,1.5-0.5V97.3z"/>
		<path class="st3" d="M585.4,97.2c-0.8,0.4-1.6,0.6-2.3,0.6c-0.5,0-1-0.1-1.5-0.4c-0.4-0.3-0.8-0.7-1-1.2s-0.4-1-0.4-1.6
			c0-0.5,0.1-1.1,0.4-1.6c0.2-0.5,0.6-0.9,1-1.2c0.4-0.3,0.9-0.4,1.5-0.4c0.7,0,1.3,0.3,1.7,0.8c0.4,0.5,0.6,1.3,0.6,2.3v0.2h-4.1
			c0,0.4,0.1,0.8,0.3,1.1c0.2,0.3,0.4,0.6,0.7,0.8c0.3,0.2,0.6,0.3,1,0.3c0.6,0,1.4-0.2,2.1-0.6V97.2z M581.4,94h3v-0.1
			c0-0.5-0.1-0.9-0.4-1.2c-0.2-0.3-0.6-0.4-1-0.4c-0.4,0-0.8,0.1-1,0.4C581.8,93,581.6,93.4,581.4,94z"/>
		<path class="st3" d="M587.7,97.6h-1.2l2.4-3.1l-2.2-2.9h1.3l1.6,2l1.5-2h1.1l-2.1,2.8l2.5,3.2h-1.3l-1.8-2.4L587.7,97.6z"/>
		<path class="st3" d="M598.7,97.3c-0.5,0.2-0.8,0.3-1,0.4c-0.2,0-0.4,0.1-0.6,0.1c-0.4,0-0.8-0.1-1.1-0.2c-0.3-0.2-0.6-0.4-0.8-0.7
			c-0.2-0.3-0.3-0.8-0.3-1.5v-2.4h-1.5v-0.8h1.5v-2.4h1v2.4h2.7v0.8h-2.7v2.4c0,0.5,0.1,0.8,0.2,1c0.1,0.2,0.3,0.3,0.5,0.4
			c0.2,0.1,0.4,0.1,0.7,0.1c0.5,0,1-0.2,1.5-0.5V97.3z"/>
	</g>
	<path class="st4" d="M423,186H247c-1.1,0-2-0.9-2-2v-44c0-1.1,0.9-2,2-2h176c1.1,0,2,0.9,2,2v44C425,185.1,424.1,186,423,186z"/>
	<path class="st4" d="M218,186H42c-1.1,0-2-0.9-2-2v-44c0-1.1,0.9-2,2-2h176c1.1,0,2,0.9,2,2v44C220,185.1,219.1,186,218,186z"/>
	<path class="st4" d="M628,200H452c-1.1,0-2-0.9-2-2v-58c0-1.1,0.9-2,2-2h176c1.1,0,2,0.9,2,2v58C630,199.1,629.1,200,628,200z"/>
	<g>
		<path class="st3" d="M93,165.4c-0.7,0.2-1.3,0.3-1.9,0.3c-0.6,0-1.1-0.1-1.6-0.4c-0.5-0.3-0.8-0.7-1.1-1.1c-0.3-0.5-0.4-1-0.4-1.6
			c0-0.9,0.3-1.7,0.9-2.3c0.6-0.6,1.3-0.9,2.1-0.9c0.6,0,1.3,0.1,2,0.3v1c-0.7-0.3-1.3-0.5-1.9-0.5c-0.4,0-0.7,0.1-1,0.3
			c-0.3,0.2-0.6,0.5-0.7,0.8s-0.3,0.8-0.3,1.2c0,0.5,0.2,1.1,0.5,1.5c0.3,0.5,0.9,0.7,1.6,0.7c0.2,0,0.4,0,0.6,0
			c0.2,0,0.6-0.1,1.2-0.3V165.4z"/>
		<path class="st3" d="M96.1,165.6v-7.8h-1.8v-0.8h2.8v7.8H99v0.8H96.1z"/>
		<path class="st3" d="M106.1,165.2c-0.8,0.4-1.6,0.6-2.3,0.6c-0.5,0-1-0.1-1.5-0.4c-0.4-0.3-0.8-0.7-1-1.2c-0.3-0.5-0.4-1-0.4-1.6
			c0-0.5,0.1-1.1,0.4-1.6s0.6-0.9,1-1.2s0.9-0.4,1.5-0.4c0.7,0,1.3,0.3,1.7,0.8c0.4,0.5,0.6,1.3,0.6,2.3v0.2h-4.1
			c0,0.4,0.1,0.8,0.3,1.1c0.2,0.3,0.4,0.6,0.7,0.8s0.6,0.3,1,0.3c0.6,0,1.4-0.2,2.1-0.6V165.2z M102.1,162h3v-0.1
			c0-0.5-0.1-0.9-0.4-1.2c-0.2-0.3-0.6-0.4-1-0.4c-0.4,0-0.8,0.1-1,0.4C102.5,161,102.2,161.4,102.1,162z"/>
		<path class="st3" d="M111.7,164.2c-0.3,0.5-0.7,0.9-1.1,1.1c-0.4,0.3-0.8,0.4-1.2,0.4c-0.5,0-1-0.2-1.4-0.6s-0.6-1.1-0.6-2
			c0-0.7,0.1-1.3,0.4-1.9c0.3-0.5,0.6-1,1.1-1.3c0.4-0.3,1-0.5,1.7-0.5c0.2,0,0.5,0,0.9,0.1c0.1,0,0.1,0,0.3,0h1v4.2
			c0,0.7,0.1,1.3,0.2,1.8h-1C111.8,165.3,111.7,164.8,111.7,164.2z M111.7,163v-2.6c-0.4-0.1-0.7-0.1-1-0.1c-0.6,0-1.1,0.2-1.5,0.7
			c-0.4,0.5-0.6,1.1-0.6,1.9c0,0.6,0.1,1,0.3,1.3c0.2,0.3,0.5,0.5,0.8,0.5c0.3,0,0.7-0.2,1-0.5C111,164,111.4,163.6,111.7,163z"/>
		<path class="st3" d="M114.3,165.6v-6h1v1.3c0.3-0.5,0.6-0.8,1-1.1s0.8-0.4,1.2-0.4c0.4,0,0.7,0.1,1,0.3c0.3,0.2,0.5,0.4,0.6,0.7
			c0.1,0.3,0.2,0.9,0.2,1.8v3.4h-1v-3.5c0-0.6,0-1-0.1-1.1c-0.1-0.2-0.2-0.3-0.3-0.5c-0.1-0.1-0.3-0.2-0.5-0.2
			c-0.4,0-0.7,0.2-1.1,0.5c-0.4,0.3-0.7,0.8-1,1.3v3.5H114.3z"/>
		<path class="st3" d="M132.5,159.6v6h-1v-1.3c-0.3,0.5-0.7,0.9-1.1,1.1s-0.8,0.4-1.2,0.4c-0.4,0-0.7-0.1-1-0.3
			c-0.3-0.2-0.5-0.4-0.6-0.7c-0.1-0.3-0.2-0.9-0.2-1.8v-3.4h1v3.5c0,0.6,0,1,0.1,1.1c0.1,0.2,0.2,0.3,0.3,0.5
			c0.1,0.1,0.3,0.2,0.5,0.2c0.4,0,0.7-0.2,1.1-0.5c0.4-0.3,0.7-0.7,1-1.3v-3.5H132.5z"/>
		<path class="st3" d="M135.1,160.9c0.3-0.5,0.7-0.9,1.1-1.1c0.4-0.3,0.8-0.4,1.2-0.4c0.5,0,1,0.2,1.4,0.6s0.6,1.1,0.6,2
			c0,0.7-0.1,1.3-0.4,1.9c-0.3,0.5-0.6,1-1.1,1.3c-0.4,0.3-1,0.5-1.6,0.5c-0.2,0-0.5,0-0.9-0.1c-0.1,0-0.1,0-0.3,0v2.3h-1v-8.3h1
			V160.9z M135.1,162.1v2.6c0.4,0.1,0.7,0.1,1,0.1c0.6,0,1.1-0.2,1.5-0.7c0.4-0.5,0.6-1.1,0.6-1.9c0-0.6-0.1-1-0.3-1.3
			c-0.2-0.3-0.5-0.5-0.8-0.5c-0.3,0-0.7,0.2-1,0.5C135.7,161.2,135.4,161.6,135.1,162.1z"/>
		<path class="st3" d="M152.4,165.3c-0.5,0.2-0.8,0.3-1,0.4c-0.2,0-0.4,0.1-0.6,0.1c-0.4,0-0.8-0.1-1.1-0.2s-0.6-0.4-0.8-0.7
			c-0.2-0.3-0.3-0.8-0.3-1.5v-2.4H147v-0.8h1.5v-2.4h1v2.4h2.7v0.8h-2.7v2.4c0,0.5,0.1,0.8,0.2,1c0.1,0.2,0.3,0.3,0.5,0.4
			c0.2,0.1,0.4,0.1,0.7,0.1c0.5,0,1-0.2,1.5-0.5V165.3z"/>
		<path class="st3" d="M158.9,165.2c-0.8,0.4-1.6,0.6-2.3,0.6c-0.5,0-1-0.1-1.5-0.4c-0.4-0.3-0.8-0.7-1-1.2c-0.3-0.5-0.4-1-0.4-1.6
			c0-0.5,0.1-1.1,0.4-1.6s0.6-0.9,1-1.2s0.9-0.4,1.5-0.4c0.7,0,1.3,0.3,1.7,0.8c0.4,0.5,0.6,1.3,0.6,2.3v0.2h-4.1
			c0,0.4,0.1,0.8,0.3,1.1c0.2,0.3,0.4,0.6,0.7,0.8s0.6,0.3,1,0.3c0.6,0,1.4-0.2,2.1-0.6V165.2z M154.9,162h3v-0.1
			c0-0.5-0.1-0.9-0.4-1.2c-0.2-0.3-0.6-0.4-1-0.4c-0.4,0-0.8,0.1-1,0.4C155.3,161,155.1,161.4,154.9,162z"/>
		<path class="st3" d="M161.2,165.6H160l2.4-3.1l-2.2-2.9h1.3l1.6,2l1.5-2h1.1l-2.1,2.8l2.5,3.2h-1.3l-1.8-2.4L161.2,165.6z"/>
		<path class="st3" d="M172.2,165.3c-0.5,0.2-0.8,0.3-1,0.4c-0.2,0-0.4,0.1-0.6,0.1c-0.4,0-0.8-0.1-1.1-0.2s-0.6-0.4-0.8-0.7
			c-0.2-0.3-0.3-0.8-0.3-1.5v-2.4h-1.5v-0.8h1.5v-2.4h1v2.4h2.7v0.8h-2.7v2.4c0,0.5,0.1,0.8,0.2,1c0.1,0.2,0.3,0.3,0.5,0.4
			c0.2,0.1,0.4,0.1,0.7,0.1c0.5,0,1-0.2,1.5-0.5V165.3z"/>
	</g>
	<g>
		<path class="st3" d="M270.5,164.2c-0.3,0.5-0.7,0.9-1.1,1.1c-0.4,0.3-0.8,0.4-1.2,0.4c-0.5,0-1-0.2-1.4-0.6s-0.6-1.1-0.6-2
			c0-0.7,0.1-1.3,0.4-1.9c0.3-0.5,0.6-1,1.1-1.3c0.4-0.3,1-0.5,1.7-0.5c0.2,0,0.5,0,0.9,0.1c0.1,0,0.1,0,0.3,0h1v4.2
			c0,1,0,1.6,0,1.9c0,0.2-0.1,0.5-0.1,0.7c-0.1,0.5-0.5,1-1,1.3s-1.1,0.5-1.9,0.5c-0.7,0-1.5-0.2-2.2-0.6v-1c0.3,0.2,0.6,0.4,1,0.5
			c0.4,0.1,0.8,0.2,1.2,0.2c0.3,0,0.6,0,0.9-0.1s0.5-0.2,0.7-0.4s0.3-0.4,0.3-0.6c0.1-0.2,0.1-0.6,0.1-1V164.2z M270.5,163v-2.6
			c-0.4-0.1-0.7-0.1-1-0.1c-0.6,0-1.1,0.2-1.5,0.7c-0.4,0.5-0.6,1.1-0.6,1.9c0,0.6,0.1,1,0.3,1.3c0.2,0.3,0.5,0.5,0.8,0.5
			c0.3,0,0.7-0.2,1-0.5C269.9,164,270.2,163.6,270.5,163z"/>
		<path class="st3" d="M278.1,165.2c-0.8,0.4-1.6,0.6-2.3,0.6c-0.5,0-1-0.1-1.5-0.4c-0.4-0.3-0.8-0.7-1-1.2c-0.3-0.5-0.4-1-0.4-1.6
			c0-0.5,0.1-1.1,0.4-1.6s0.6-0.9,1-1.2s0.9-0.4,1.5-0.4c0.7,0,1.3,0.3,1.7,0.8c0.4,0.5,0.6,1.3,0.6,2.3v0.2h-4.1
			c0,0.4,0.1,0.8,0.3,1.1c0.2,0.3,0.4,0.6,0.7,0.8s0.6,0.3,1,0.3c0.6,0,1.4-0.2,2.1-0.6V165.2z M274.1,162h3v-0.1
			c0-0.5-0.1-0.9-0.4-1.2c-0.2-0.3-0.6-0.4-1-0.4c-0.4,0-0.8,0.1-1,0.4C274.4,161,274.2,161.4,274.1,162z"/>
		<path class="st3" d="M279.7,165.6v-6h1v1.3c0.3-0.5,0.6-0.8,1-1.1s0.8-0.4,1.2-0.4c0.4,0,0.7,0.1,1,0.3c0.3,0.2,0.5,0.4,0.6,0.7
			c0.1,0.3,0.2,0.9,0.2,1.8v3.4h-1v-3.5c0-0.6,0-1-0.1-1.1c-0.1-0.2-0.2-0.3-0.3-0.5c-0.1-0.1-0.3-0.2-0.5-0.2
			c-0.4,0-0.7,0.2-1.1,0.5c-0.4,0.3-0.7,0.8-1,1.3v3.5H279.7z"/>
		<path class="st3" d="M291.3,165.2c-0.8,0.4-1.6,0.6-2.3,0.6c-0.5,0-1-0.1-1.5-0.4c-0.4-0.3-0.8-0.7-1-1.2c-0.3-0.5-0.4-1-0.4-1.6
			c0-0.5,0.1-1.1,0.4-1.6s0.6-0.9,1-1.2s0.9-0.4,1.5-0.4c0.7,0,1.3,0.3,1.7,0.8c0.4,0.5,0.6,1.3,0.6,2.3v0.2h-4.1
			c0,0.4,0.1,0.8,0.3,1.1c0.2,0.3,0.4,0.6,0.7,0.8s0.6,0.3,1,0.3c0.6,0,1.4-0.2,2.1-0.6V165.2z M287.3,162h3v-0.1
			c0-0.5-0.1-0.9-0.4-1.2c-0.2-0.3-0.6-0.4-1-0.4c-0.4,0-0.8,0.1-1,0.4C287.6,161,287.4,161.4,287.3,162z"/>
		<path class="st3" d="M293.4,165.6v-6h1v1.3c0.3-0.5,0.7-0.9,1.1-1.1c0.4-0.2,0.9-0.4,1.3-0.4c0.4,0,0.7,0.1,1.1,0.2v2.2h-1v-1.4
			c-0.2,0-0.3,0-0.4,0c-0.4,0-0.7,0.1-1.1,0.4s-0.7,0.7-1,1.3v3.5H293.4z"/>
		<path class="st3" d="M303.5,164.2c-0.3,0.5-0.7,0.9-1.1,1.1c-0.4,0.3-0.8,0.4-1.2,0.4c-0.5,0-1-0.2-1.4-0.6s-0.6-1.1-0.6-2
			c0-0.7,0.1-1.3,0.4-1.9c0.3-0.5,0.6-1,1.1-1.3c0.4-0.3,1-0.5,1.7-0.5c0.2,0,0.5,0,0.9,0.1c0.1,0,0.1,0,0.3,0h1v4.2
			c0,0.7,0.1,1.3,0.2,1.8h-1C303.6,165.3,303.5,164.8,303.5,164.2z M303.5,163v-2.6c-0.4-0.1-0.7-0.1-1-0.1c-0.6,0-1.1,0.2-1.5,0.7
			c-0.4,0.5-0.6,1.1-0.6,1.9c0,0.6,0.1,1,0.3,1.3c0.2,0.3,0.5,0.5,0.8,0.5c0.3,0,0.7-0.2,1-0.5C302.8,164,303.2,163.6,303.5,163z"/>
		<path class="st3" d="M311.1,165.3c-0.5,0.2-0.8,0.3-1,0.4c-0.2,0-0.4,0.1-0.6,0.1c-0.4,0-0.8-0.1-1.1-0.2s-0.6-0.4-0.8-0.7
			c-0.2-0.3-0.3-0.8-0.3-1.5v-2.4h-1.5v-0.8h1.5v-2.4h1v2.4h2.7v0.8h-2.7v2.4c0,0.5,0.1,0.8,0.2,1c0.1,0.2,0.3,0.3,0.5,0.4
			c0.2,0.1,0.4,0.1,0.7,0.1c0.5,0,1-0.2,1.5-0.5V165.3z"/>
		<path class="st3" d="M317.7,165.2c-0.8,0.4-1.6,0.6-2.3,0.6c-0.5,0-1-0.1-1.5-0.4c-0.4-0.3-0.8-0.7-1-1.2c-0.3-0.5-0.4-1-0.4-1.6
			c0-0.5,0.1-1.1,0.4-1.6s0.6-0.9,1-1.2s0.9-0.4,1.5-0.4c0.7,0,1.3,0.3,1.7,0.8c0.4,0.5,0.6,1.3,0.6,2.3v0.2h-4.1
			c0,0.4,0.1,0.8,0.3,1.1c0.2,0.3,0.4,0.6,0.7,0.8s0.6,0.3,1,0.3c0.6,0,1.4-0.2,2.1-0.6V165.2z M313.7,162h3v-0.1
			c0-0.5-0.1-0.9-0.4-1.2c-0.2-0.3-0.6-0.4-1-0.4c-0.4,0-0.8,0.1-1,0.4C314.1,161,313.8,161.4,313.7,162z"/>
		<path class="st3" d="M326.3,165.6h-0.9v-8.3h1.1l1.9,5.5l1.9-5.5h1.1v8.3h-1v-5.3l0-0.7h0l-0.2,0.7l-1.3,3.6h-1.1l-1.3-3.6
			l-0.2-0.7h0l0,0.7V165.6z"/>
		<path class="st3" d="M336.5,164.2c-0.3,0.5-0.7,0.9-1.1,1.1c-0.4,0.3-0.8,0.4-1.2,0.4c-0.5,0-1-0.2-1.4-0.6s-0.6-1.1-0.6-2
			c0-0.7,0.1-1.3,0.4-1.9c0.3-0.5,0.6-1,1.1-1.3c0.4-0.3,1-0.5,1.7-0.5c0.2,0,0.5,0,0.9,0.1c0.1,0,0.1,0,0.3,0h1v4.2
			c0,0.7,0.1,1.3,0.2,1.8h-1C336.6,165.3,336.5,164.8,336.5,164.2z M336.5,163v-2.6c-0.4-0.1-0.7-0.1-1-0.1c-0.6,0-1.1,0.2-1.5,0.7
			c-0.4,0.5-0.6,1.1-0.6,1.9c0,0.6,0.1,1,0.3,1.3c0.2,0.3,0.5,0.5,0.8,0.5c0.3,0,0.7-0.2,1-0.5C335.8,164,336.2,163.6,336.5,163z"/>
		<path class="st3" d="M339.6,165.6v-6h1v1.3c0.3-0.5,0.7-0.9,1.1-1.1c0.4-0.2,0.9-0.4,1.3-0.4c0.4,0,0.7,0.1,1.1,0.2v2.2h-1v-1.4
			c-0.2,0-0.3,0-0.4,0c-0.4,0-0.7,0.1-1.1,0.4c-0.4,0.3-0.7,0.7-1,1.3v3.5H339.6z"/>
		<path class="st3" d="M346,165.6v-8.7h1v5.4l2.9-2.8h1.3l-2.9,2.7l2.9,3.2h-1.4l-2.9-3.2v3.2H346z"/>
		<path class="st3" d="M354.8,165.7c-0.9,0-1.5-0.3-2.1-0.9c-0.5-0.6-0.8-1.4-0.8-2.3s0.3-1.7,0.8-2.3c0.5-0.6,1.2-0.9,2.1-0.9
			c0.9,0,1.5,0.3,2.1,0.9c0.5,0.6,0.8,1.4,0.8,2.3s-0.3,1.7-0.8,2.3C356.3,165.4,355.7,165.7,354.8,165.7z M354.8,164.9
			c0.5,0,1-0.2,1.3-0.6s0.5-1,0.5-1.7c0-0.7-0.2-1.3-0.5-1.7s-0.7-0.6-1.3-0.6c-0.5,0-1,0.2-1.3,0.6c-0.3,0.4-0.5,1-0.5,1.7
			c0,0.7,0.2,1.3,0.5,1.7C353.8,164.7,354.3,164.9,354.8,164.9z"/>
		<path class="st3" d="M360.9,165.6l-2.6-6h1.1l2.1,4.8l2.1-4.8h1l-2.6,6H360.9z"/>
		<path class="st3" d="M377.1,165.5c-0.6,0.2-1.2,0.3-1.7,0.3c-0.7,0-1.3-0.2-1.8-0.5c-0.5-0.3-1-0.9-1.3-1.6
			c-0.3-0.7-0.5-1.5-0.5-2.3c0-0.9,0.2-1.6,0.5-2.3s0.7-1.2,1.3-1.6s1.2-0.5,1.8-0.5c0.5,0,1.1,0.1,1.7,0.3v1
			c-0.6-0.3-1.1-0.5-1.7-0.5c-0.4,0-0.8,0.1-1.2,0.4s-0.6,0.7-0.9,1.3c-0.2,0.6-0.3,1.2-0.3,1.9c0,0.7,0.1,1.3,0.3,1.9
			c0.2,0.6,0.5,1,0.9,1.3c0.4,0.3,0.7,0.4,1.2,0.4c0.6,0,1.1-0.2,1.7-0.5V165.5z"/>
		<path class="st3" d="M378.7,165.6v-8.7h1v4c0.3-0.5,0.6-0.8,1-1.1c0.4-0.3,0.8-0.4,1.2-0.4c0.3,0,0.7,0.1,0.9,0.3
			c0.3,0.2,0.5,0.4,0.6,0.6c0.1,0.2,0.2,0.4,0.2,0.6c0,0.2,0,0.7,0,1.3v3.4h-1v-3.5c0-0.6,0-1-0.1-1.1c-0.1-0.2-0.2-0.3-0.3-0.5
			s-0.3-0.2-0.5-0.2c-0.4,0-0.7,0.2-1.1,0.5c-0.4,0.3-0.7,0.8-1,1.3v3.5H378.7z"/>
		<path class="st3" d="M389.3,164.2c-0.3,0.5-0.7,0.9-1.1,1.1c-0.4,0.3-0.8,0.4-1.2,0.4c-0.5,0-1-0.2-1.4-0.6s-0.6-1.1-0.6-2
			c0-0.7,0.1-1.3,0.4-1.9c0.3-0.5,0.6-1,1.1-1.3c0.4-0.3,1-0.5,1.7-0.5c0.2,0,0.5,0,0.9,0.1c0.1,0,0.1,0,0.3,0h1v4.2
			c0,0.7,0.1,1.3,0.2,1.8h-1C389.4,165.3,389.3,164.8,389.3,164.2z M389.3,163v-2.6c-0.4-0.1-0.7-0.1-1-0.1c-0.6,0-1.1,0.2-1.5,0.7
			c-0.4,0.5-0.6,1.1-0.6,1.9c0,0.6,0.1,1,0.3,1.3c0.2,0.3,0.5,0.5,0.8,0.5c0.3,0,0.7-0.2,1-0.5C388.7,164,389,163.6,389.3,163z"/>
		<path class="st3" d="M393.6,165.6v-5.2H392v-0.8h2.7v5.2h1.7v0.8H393.6z M393.5,157.4c0-0.2,0.1-0.4,0.2-0.5
			c0.2-0.1,0.3-0.2,0.4-0.2c0.1,0,0.3,0.1,0.4,0.2c0.2,0.1,0.2,0.3,0.2,0.5c0,0.2-0.1,0.4-0.2,0.5c-0.2,0.1-0.3,0.2-0.4,0.2
			c-0.1,0-0.3-0.1-0.4-0.2C393.5,157.8,393.5,157.6,393.5,157.4z"/>
		<path class="st3" d="M398.5,165.6v-6h1v1.3c0.3-0.5,0.6-0.8,1-1.1s0.8-0.4,1.2-0.4c0.4,0,0.7,0.1,1,0.3c0.3,0.2,0.5,0.4,0.6,0.7
			s0.2,0.9,0.2,1.8v3.4h-1v-3.5c0-0.6,0-1-0.1-1.1c-0.1-0.2-0.2-0.3-0.3-0.5s-0.3-0.2-0.5-0.2c-0.4,0-0.7,0.2-1.1,0.5
			c-0.4,0.3-0.7,0.8-1,1.3v3.5H398.5z"/>
	</g>
	<g>
		<path class="st3" d="M488.7,164.2c-0.3,0.5-0.7,0.9-1.1,1.1c-0.4,0.3-0.8,0.4-1.2,0.4c-0.5,0-1-0.2-1.4-0.6
			c-0.4-0.4-0.6-1.1-0.6-2c0-0.7,0.1-1.3,0.4-1.9c0.3-0.5,0.6-1,1.1-1.3c0.4-0.3,1-0.5,1.7-0.5c0.2,0,0.5,0,0.9,0.1
			c0.1,0,0.1,0,0.3,0h1v4.2c0,1,0,1.6,0,1.9c0,0.2-0.1,0.5-0.1,0.7c-0.1,0.5-0.5,1-1,1.3s-1.1,0.5-1.9,0.5c-0.7,0-1.5-0.2-2.2-0.6
			v-1c0.3,0.2,0.6,0.4,1,0.5c0.4,0.1,0.8,0.2,1.2,0.2c0.3,0,0.6,0,0.9-0.1s0.5-0.2,0.7-0.4c0.2-0.2,0.3-0.4,0.3-0.6s0.1-0.6,0.1-1
			V164.2z M488.7,163v-2.6c-0.4-0.1-0.7-0.1-1-0.1c-0.6,0-1.1,0.2-1.5,0.7c-0.4,0.5-0.6,1.1-0.6,1.9c0,0.6,0.1,1,0.3,1.3
			c0.2,0.3,0.5,0.5,0.8,0.5c0.3,0,0.7-0.2,1-0.5S488.4,163.6,488.7,163z"/>
		<path class="st3" d="M496.3,165.2c-0.8,0.4-1.6,0.6-2.3,0.6c-0.5,0-1-0.1-1.5-0.4c-0.4-0.3-0.8-0.7-1-1.2c-0.3-0.5-0.4-1-0.4-1.6
			c0-0.5,0.1-1.1,0.4-1.6c0.2-0.5,0.6-0.9,1-1.2c0.4-0.3,0.9-0.4,1.5-0.4c0.7,0,1.3,0.3,1.7,0.8c0.4,0.5,0.6,1.3,0.6,2.3v0.2h-4.1
			c0,0.4,0.1,0.8,0.3,1.1s0.4,0.6,0.7,0.8c0.3,0.2,0.6,0.3,1,0.3c0.6,0,1.4-0.2,2.1-0.6V165.2z M492.3,162h3v-0.1
			c0-0.5-0.1-0.9-0.4-1.2c-0.2-0.3-0.6-0.4-1-0.4c-0.4,0-0.8,0.1-1,0.4C492.6,161,492.4,161.4,492.3,162z"/>
		<path class="st3" d="M497.9,165.6v-6h1v1.3c0.3-0.5,0.6-0.8,1-1.1c0.4-0.3,0.8-0.4,1.2-0.4c0.4,0,0.7,0.1,1,0.3
			c0.3,0.2,0.5,0.4,0.6,0.7s0.2,0.9,0.2,1.8v3.4h-1v-3.5c0-0.6,0-1-0.1-1.1c-0.1-0.2-0.2-0.3-0.3-0.5s-0.3-0.2-0.5-0.2
			c-0.4,0-0.7,0.2-1.1,0.5c-0.4,0.3-0.7,0.8-1,1.3v3.5H497.9z"/>
		<path class="st3" d="M509.5,165.2c-0.8,0.4-1.6,0.6-2.3,0.6c-0.5,0-1-0.1-1.5-0.4c-0.4-0.3-0.8-0.7-1-1.2c-0.3-0.5-0.4-1-0.4-1.6
			c0-0.5,0.1-1.1,0.4-1.6c0.2-0.5,0.6-0.9,1-1.2c0.4-0.3,0.9-0.4,1.5-0.4c0.7,0,1.3,0.3,1.7,0.8c0.4,0.5,0.6,1.3,0.6,2.3v0.2h-4.1
			c0,0.4,0.1,0.8,0.3,1.1s0.4,0.6,0.7,0.8c0.3,0.2,0.6,0.3,1,0.3c0.6,0,1.4-0.2,2.1-0.6V165.2z M505.5,162h3v-0.1
			c0-0.5-0.1-0.9-0.4-1.2c-0.2-0.3-0.6-0.4-1-0.4c-0.4,0-0.8,0.1-1,0.4C505.8,161,505.6,161.4,505.5,162z"/>
		<path class="st3" d="M511.6,165.6v-6h1v1.3c0.3-0.5,0.7-0.9,1.1-1.1c0.4-0.2,0.9-0.4,1.3-0.4c0.4,0,0.7,0.1,1.1,0.2v2.2h-1v-1.4
			c-0.2,0-0.3,0-0.4,0c-0.4,0-0.7,0.1-1.1,0.4c-0.4,0.3-0.7,0.7-1,1.3v3.5H511.6z"/>
		<path class="st3" d="M521.7,164.2c-0.3,0.5-0.7,0.9-1.1,1.1c-0.4,0.3-0.8,0.4-1.2,0.4c-0.5,0-1-0.2-1.4-0.6s-0.6-1.1-0.6-2
			c0-0.7,0.1-1.3,0.4-1.9c0.3-0.5,0.6-1,1.1-1.3c0.4-0.3,1-0.5,1.7-0.5c0.2,0,0.5,0,0.9,0.1c0.1,0,0.1,0,0.3,0h1v4.2
			c0,0.7,0.1,1.3,0.2,1.8h-1C521.8,165.3,521.7,164.8,521.7,164.2z M521.7,163v-2.6c-0.4-0.1-0.7-0.1-1-0.1c-0.6,0-1.1,0.2-1.5,0.7
			c-0.4,0.5-0.6,1.1-0.6,1.9c0,0.6,0.1,1,0.3,1.3c0.2,0.3,0.5,0.5,0.8,0.5c0.3,0,0.7-0.2,1-0.5C521,164,521.4,163.6,521.7,163z"/>
		<path class="st3" d="M529.3,165.3c-0.5,0.2-0.8,0.3-1,0.4c-0.2,0-0.4,0.1-0.6,0.1c-0.4,0-0.8-0.1-1.1-0.2
			c-0.3-0.2-0.6-0.4-0.8-0.7c-0.2-0.3-0.3-0.8-0.3-1.5v-2.4H524v-0.8h1.5v-2.4h1v2.4h2.7v0.8h-2.7v2.4c0,0.5,0.1,0.8,0.2,1
			c0.1,0.2,0.3,0.3,0.5,0.4c0.2,0.1,0.4,0.1,0.7,0.1c0.5,0,1-0.2,1.5-0.5V165.3z"/>
		<path class="st3" d="M535.9,165.2c-0.8,0.4-1.6,0.6-2.3,0.6c-0.5,0-1-0.1-1.5-0.4c-0.4-0.3-0.8-0.7-1-1.2c-0.3-0.5-0.4-1-0.4-1.6
			c0-0.5,0.1-1.1,0.4-1.6c0.2-0.5,0.6-0.9,1-1.2c0.4-0.3,0.9-0.4,1.5-0.4c0.7,0,1.3,0.3,1.7,0.8c0.4,0.5,0.6,1.3,0.6,2.3v0.2h-4.1
			c0,0.4,0.1,0.8,0.3,1.1s0.4,0.6,0.7,0.8c0.3,0.2,0.6,0.3,1,0.3c0.6,0,1.4-0.2,2.1-0.6V165.2z M531.9,162h3v-0.1
			c0-0.5-0.1-0.9-0.4-1.2c-0.2-0.3-0.6-0.4-1-0.4c-0.4,0-0.8,0.1-1,0.4C532.3,161,532,161.4,531.9,162z"/>
		<path class="st3" d="M543.7,165.6v-6h0.9v1.4c0.3-0.6,0.5-1,0.8-1.2c0.2-0.2,0.5-0.3,0.7-0.3c0.3,0,0.5,0.1,0.7,0.3
			c0.2,0.2,0.3,0.6,0.3,1v0.3c0.1-0.4,0.3-0.7,0.4-0.9c0.2-0.2,0.3-0.4,0.5-0.5c0.2-0.1,0.4-0.2,0.6-0.2c0.3,0,0.5,0.1,0.7,0.3
			s0.3,0.7,0.3,1.3v4.5h-0.9v-4.1c0-0.3,0-0.6,0-0.7c0-0.1-0.1-0.2-0.1-0.3s-0.1-0.1-0.2-0.1c-0.2,0-0.4,0.1-0.6,0.4
			c-0.2,0.3-0.4,0.8-0.7,1.4v3.3h-0.8v-4.1c0-0.5-0.1-0.8-0.2-0.9c-0.1-0.1-0.2-0.1-0.3-0.1c-0.2,0-0.4,0.2-0.6,0.5
			c-0.2,0.3-0.4,0.7-0.6,1.2v3.5H543.7z"/>
		<path class="st3" d="M555.7,159.6v6h-1v-1.3c-0.3,0.5-0.7,0.9-1.1,1.1c-0.4,0.2-0.8,0.4-1.2,0.4c-0.4,0-0.7-0.1-1-0.3
			c-0.3-0.2-0.5-0.4-0.6-0.7c-0.1-0.3-0.2-0.9-0.2-1.8v-3.4h1v3.5c0,0.6,0,1,0.1,1.1c0.1,0.2,0.2,0.3,0.3,0.5s0.3,0.2,0.5,0.2
			c0.4,0,0.7-0.2,1.1-0.5c0.4-0.3,0.7-0.7,1-1.3v-3.5H555.7z"/>
		<path class="st3" d="M558.9,165.6v-7.8h-1.8v-0.8h2.8v7.8h1.9v0.8H558.9z"/>
		<path class="st3" d="M569,165.3c-0.5,0.2-0.8,0.3-1,0.4c-0.2,0-0.4,0.1-0.6,0.1c-0.4,0-0.8-0.1-1.1-0.2c-0.3-0.2-0.6-0.4-0.8-0.7
			c-0.2-0.3-0.3-0.8-0.3-1.5v-2.4h-1.5v-0.8h1.5v-2.4h1v2.4h2.7v0.8h-2.7v2.4c0,0.5,0.1,0.8,0.2,1c0.1,0.2,0.3,0.3,0.5,0.4
			c0.2,0.1,0.4,0.1,0.7,0.1c0.5,0,1-0.2,1.5-0.5V165.3z"/>
		<path class="st3" d="M572.2,165.6v-5.2h-1.7v-0.8h2.7v5.2h1.7v0.8H572.2z M572.1,157.4c0-0.2,0.1-0.4,0.2-0.5
			c0.2-0.1,0.3-0.2,0.4-0.2c0.1,0,0.3,0.1,0.4,0.2c0.2,0.1,0.2,0.3,0.2,0.5c0,0.2-0.1,0.4-0.2,0.5c-0.2,0.1-0.3,0.2-0.4,0.2
			c-0.1,0-0.3-0.1-0.4-0.2C572.1,157.8,572.1,157.6,572.1,157.4z"/>
		<path class="st3" d="M578.1,160.9c0.3-0.5,0.7-0.9,1.1-1.1c0.4-0.3,0.8-0.4,1.2-0.4c0.5,0,1,0.2,1.4,0.6c0.4,0.4,0.6,1.1,0.6,2
			c0,0.7-0.1,1.3-0.4,1.9c-0.3,0.5-0.6,1-1.1,1.3c-0.4,0.3-1,0.5-1.6,0.5c-0.2,0-0.5,0-0.9-0.1c-0.1,0-0.1,0-0.3,0v2.3h-1v-8.3h1
			V160.9z M578.1,162.1v2.6c0.4,0.1,0.7,0.1,1,0.1c0.6,0,1.1-0.2,1.5-0.7c0.4-0.5,0.6-1.1,0.6-1.9c0-0.6-0.1-1-0.3-1.3
			c-0.2-0.3-0.5-0.5-0.8-0.5c-0.3,0-0.7,0.2-1,0.5S578.4,161.6,578.1,162.1z"/>
		<path class="st3" d="M585.4,165.6v-7.8h-1.8v-0.8h2.8v7.8h1.9v0.8H585.4z"/>
		<path class="st3" d="M595.3,165.2c-0.8,0.4-1.6,0.6-2.3,0.6c-0.5,0-1-0.1-1.5-0.4c-0.4-0.3-0.8-0.7-1-1.2s-0.4-1-0.4-1.6
			c0-0.5,0.1-1.1,0.4-1.6c0.2-0.5,0.6-0.9,1-1.2c0.4-0.3,0.9-0.4,1.5-0.4c0.7,0,1.3,0.3,1.7,0.8c0.4,0.5,0.6,1.3,0.6,2.3v0.2h-4.1
			c0,0.4,0.1,0.8,0.3,1.1c0.2,0.3,0.4,0.6,0.7,0.8c0.3,0.2,0.6,0.3,1,0.3c0.6,0,1.4-0.2,2.1-0.6V165.2z M591.3,162h3v-0.1
			c0-0.5-0.1-0.9-0.4-1.2c-0.2-0.3-0.6-0.4-1-0.4c-0.4,0-0.8,0.1-1,0.4C591.7,161,591.5,161.4,591.3,162z"/>
		<path class="st3" d="M518.7,174.1c0.3-0.5,0.7-0.9,1.1-1.1c0.4-0.3,0.8-0.4,1.2-0.4c0.5,0,1,0.2,1.4,0.6c0.4,0.4,0.6,1.1,0.6,2
			c0,0.7-0.1,1.3-0.4,1.9c-0.3,0.5-0.6,1-1.1,1.3c-0.4,0.3-1,0.5-1.6,0.5c-0.2,0-0.5,0-0.9-0.1c-0.1,0-0.1,0-0.3,0v2.3h-1v-8.3h1
			V174.1z M518.7,175.3v2.6c0.4,0.1,0.7,0.1,1,0.1c0.6,0,1.1-0.2,1.5-0.7c0.4-0.5,0.6-1.1,0.6-1.9c0-0.6-0.1-1-0.3-1.3
			c-0.2-0.3-0.5-0.5-0.8-0.5c-0.3,0-0.7,0.2-1,0.5S519,174.8,518.7,175.3z"/>
		<path class="st3" d="M524.3,178.8v-8.7h1v4c0.3-0.5,0.6-0.8,1-1.1c0.4-0.3,0.8-0.4,1.2-0.4c0.3,0,0.7,0.1,0.9,0.3
			c0.3,0.2,0.5,0.4,0.6,0.6c0.1,0.2,0.2,0.4,0.2,0.6c0,0.2,0,0.7,0,1.3v3.4h-1v-3.5c0-0.6,0-1-0.1-1.1c-0.1-0.2-0.2-0.3-0.3-0.5
			c-0.1-0.1-0.3-0.2-0.5-0.2c-0.4,0-0.7,0.2-1.1,0.5c-0.4,0.3-0.7,0.8-1,1.3v3.5H524.3z"/>
		<path class="st3" d="M531.4,178.8v-6h1v1.3c0.3-0.5,0.7-0.9,1.1-1.1c0.4-0.2,0.9-0.4,1.3-0.4c0.4,0,0.7,0.1,1.1,0.2v2.2h-1v-1.4
			c-0.2,0-0.3,0-0.4,0c-0.4,0-0.7,0.1-1.1,0.4c-0.4,0.3-0.7,0.7-1,1.3v3.5H531.4z"/>
		<path class="st3" d="M541.5,177.4c-0.3,0.5-0.7,0.9-1.1,1.1c-0.4,0.3-0.8,0.4-1.2,0.4c-0.5,0-1-0.2-1.4-0.6s-0.6-1.1-0.6-2
			c0-0.7,0.1-1.3,0.4-1.9c0.3-0.5,0.6-1,1.1-1.3c0.4-0.3,1-0.5,1.7-0.5c0.2,0,0.5,0,0.9,0.1c0.1,0,0.1,0,0.3,0h1v4.2
			c0,0.7,0.1,1.3,0.2,1.8h-1C541.6,178.5,541.5,178,541.5,177.4z M541.5,176.2v-2.6c-0.4-0.1-0.7-0.1-1-0.1c-0.6,0-1.1,0.2-1.5,0.7
			c-0.4,0.5-0.6,1.1-0.6,1.9c0,0.6,0.1,1,0.3,1.3c0.2,0.3,0.5,0.5,0.8,0.5c0.3,0,0.7-0.2,1-0.5C540.8,177.2,541.2,176.8,541.5,176.2
			z"/>
		<path class="st3" d="M544.2,178.5v-1.1c0.4,0.3,0.8,0.4,1.3,0.6c0.4,0.1,0.8,0.2,1.1,0.2c0.5,0,0.9-0.1,1.1-0.2
			c0.2-0.2,0.3-0.4,0.3-0.6c0-0.2-0.1-0.3-0.2-0.4c-0.1-0.1-0.4-0.3-0.8-0.4l-0.3-0.1l-0.7-0.3c-0.7-0.3-1.2-0.6-1.4-0.8
			c-0.2-0.2-0.3-0.5-0.3-0.9c0-0.5,0.2-0.9,0.6-1.2s1-0.5,1.9-0.5c0.6,0,1.2,0.1,1.8,0.3v0.9c-0.7-0.2-1.3-0.4-1.9-0.4
			c-0.4,0-0.8,0.1-1,0.2c-0.2,0.1-0.4,0.3-0.4,0.6c0,0.2,0.1,0.4,0.3,0.5c0.2,0.1,0.5,0.3,1,0.4l0.7,0.2c0.6,0.2,1.1,0.5,1.3,0.7
			s0.4,0.6,0.4,1c0,0.5-0.2,0.9-0.6,1.3c-0.4,0.3-1,0.5-1.9,0.5C545.8,178.9,545,178.8,544.2,178.5z"/>
		<path class="st3" d="M555.7,178.4c-0.8,0.4-1.6,0.6-2.3,0.6c-0.5,0-1-0.1-1.5-0.4c-0.4-0.3-0.8-0.7-1-1.2c-0.3-0.5-0.4-1-0.4-1.6
			c0-0.5,0.1-1.1,0.4-1.6c0.2-0.5,0.6-0.9,1-1.2c0.4-0.3,0.9-0.4,1.5-0.4c0.7,0,1.3,0.3,1.7,0.8c0.4,0.5,0.6,1.3,0.6,2.3v0.2h-4.1
			c0,0.4,0.1,0.8,0.3,1.1s0.4,0.6,0.7,0.8c0.3,0.2,0.6,0.3,1,0.3c0.6,0,1.4-0.2,2.1-0.6V178.4z M551.7,175.2h3v-0.1
			c0-0.5-0.1-0.9-0.4-1.2c-0.2-0.3-0.6-0.4-1-0.4c-0.4,0-0.8,0.1-1,0.4C552.1,174.2,551.9,174.6,551.7,175.2z"/>
		<path class="st3" d="M557.4,178.5v-1.1c0.4,0.3,0.8,0.4,1.3,0.6c0.4,0.1,0.8,0.2,1.1,0.2c0.5,0,0.9-0.1,1.1-0.2
			c0.2-0.2,0.3-0.4,0.3-0.6c0-0.2-0.1-0.3-0.2-0.4c-0.1-0.1-0.4-0.3-0.8-0.4l-0.3-0.1l-0.7-0.3c-0.7-0.3-1.2-0.6-1.4-0.8
			c-0.2-0.2-0.3-0.5-0.3-0.9c0-0.5,0.2-0.9,0.6-1.2s1-0.5,1.9-0.5c0.6,0,1.2,0.1,1.8,0.3v0.9c-0.7-0.2-1.3-0.4-1.9-0.4
			c-0.4,0-0.8,0.1-1,0.2c-0.2,0.1-0.4,0.3-0.4,0.6c0,0.2,0.1,0.4,0.3,0.5c0.2,0.1,0.5,0.3,1,0.4l0.7,0.2c0.6,0.2,1.1,0.5,1.3,0.7
			s0.4,0.6,0.4,1c0,0.5-0.2,0.9-0.6,1.3c-0.4,0.3-1,0.5-1.9,0.5C559,178.9,558.2,178.8,557.4,178.5z"/>
	</g>
	<path class="st4" d="M218,244H42c-1.1,0-2-0.9-2-2v-44c0-1.1,0.9-2,2-2h176c1.1,0,2,0.9,2,2v44C220,243.1,219.1,244,218,244z"/>
	<path class="st4" d="M628,258H452c-1.1,0-2-0.9-2-2v-44c0-1.1,0.9-2,2-2h176c1.1,0,2,0.9,2,2v44C630,257.1,629.1,258,628,258z"/>
	<g>
		<path class="st3" d="M60.2,220l0-1.9l-1.4,1l-0.5-0.9l1.6-0.8l-1.6-0.8l0.5-0.9l1.4,1l0-1.9h1l0,1.9l1.4-1l0.5,0.9l-1.7,0.8
			l1.7,0.8l-0.5,0.9l-1.4-1l0,1.9H60.2z"/>
		<path class="st3" d="M65.1,223.6l-1-6H65l0.6,3.7l0.2,0.8l0.1-0.8l1-3.7h0.9l1.1,3.7l0.2,0.8l0.1-0.8l0.6-3.7h0.8l-1,6h-0.9
			l-1.1-3.9l-0.2-0.8h0l-0.2,0.8l-1,3.9H65.1z"/>
		<path class="st3" d="M71.9,223.6v-6h1v1.3c0.3-0.5,0.7-0.9,1.1-1.1c0.4-0.2,0.9-0.4,1.3-0.4c0.4,0,0.7,0.1,1.1,0.2v2.2h-1v-1.4
			c-0.2,0-0.3,0-0.4,0c-0.4,0-0.7,0.1-1.1,0.4s-0.7,0.7-1,1.3v3.5H71.9z"/>
		<path class="st3" d="M79.7,223.6v-5.2H78v-0.8h2.7v5.2h1.7v0.8H79.7z M79.5,215.4c0-0.2,0.1-0.4,0.2-0.5c0.2-0.1,0.3-0.2,0.4-0.2
			c0.1,0,0.3,0.1,0.4,0.2c0.2,0.1,0.2,0.3,0.2,0.5c0,0.2-0.1,0.4-0.2,0.5c-0.2,0.1-0.3,0.2-0.4,0.2c-0.1,0-0.3-0.1-0.4-0.2
			C79.6,215.8,79.5,215.6,79.5,215.4z"/>
		<path class="st3" d="M89.6,223.3c-0.5,0.2-0.8,0.3-1,0.4c-0.2,0-0.4,0.1-0.6,0.1c-0.4,0-0.8-0.1-1.1-0.2s-0.6-0.4-0.8-0.7
			c-0.2-0.3-0.3-0.8-0.3-1.5v-2.4h-1.5v-0.8h1.5v-2.4h1v2.4h2.7v0.8h-2.7v2.4c0,0.5,0.1,0.8,0.2,1c0.1,0.2,0.3,0.3,0.5,0.4
			c0.2,0.1,0.4,0.1,0.7,0.1c0.5,0,1-0.2,1.5-0.5V223.3z"/>
		<path class="st3" d="M96.2,223.2c-0.8,0.4-1.6,0.6-2.3,0.6c-0.5,0-1-0.1-1.5-0.4c-0.4-0.3-0.8-0.7-1-1.2c-0.3-0.5-0.4-1-0.4-1.6
			c0-0.5,0.1-1.1,0.4-1.6s0.6-0.9,1-1.2s0.9-0.4,1.5-0.4c0.7,0,1.3,0.3,1.7,0.8c0.4,0.5,0.6,1.3,0.6,2.3v0.2h-4.1
			c0,0.4,0.1,0.8,0.3,1.1c0.2,0.3,0.4,0.6,0.7,0.8s0.6,0.3,1,0.3c0.6,0,1.4-0.2,2.1-0.6V223.2z M92.2,220h3v-0.1
			c0-0.5-0.1-0.9-0.4-1.2c-0.2-0.3-0.6-0.4-1-0.4c-0.4,0-0.8,0.1-1,0.4C92.5,219,92.3,219.4,92.2,220z"/>
		<path class="st3" d="M109.5,223.4c-0.7,0.2-1.3,0.3-1.9,0.3c-0.6,0-1.1-0.1-1.6-0.4c-0.5-0.3-0.8-0.7-1.1-1.1
			c-0.3-0.5-0.4-1-0.4-1.6c0-0.9,0.3-1.7,0.9-2.3c0.6-0.6,1.3-0.9,2.1-0.9c0.6,0,1.3,0.1,2,0.3v1c-0.7-0.3-1.3-0.5-1.9-0.5
			c-0.4,0-0.7,0.1-1,0.3c-0.3,0.2-0.6,0.5-0.7,0.8s-0.3,0.8-0.3,1.2c0,0.5,0.2,1.1,0.5,1.5c0.3,0.5,0.9,0.7,1.6,0.7
			c0.2,0,0.4,0,0.6,0c0.2,0,0.6-0.1,1.2-0.3V223.4z"/>
		<path class="st3" d="M113.5,223.7c-0.9,0-1.5-0.3-2.1-0.9c-0.5-0.6-0.8-1.4-0.8-2.3s0.3-1.7,0.8-2.3s1.2-0.9,2.1-0.9
			c0.9,0,1.5,0.3,2.1,0.9s0.8,1.4,0.8,2.3s-0.3,1.7-0.8,2.3C115,223.4,114.4,223.7,113.5,223.7z M113.5,222.9c0.5,0,1-0.2,1.3-0.6
			c0.3-0.4,0.5-1,0.5-1.7c0-0.7-0.2-1.3-0.5-1.7c-0.3-0.4-0.7-0.6-1.3-0.6c-0.5,0-1,0.2-1.3,0.6c-0.3,0.4-0.5,1-0.5,1.7
			c0,0.7,0.2,1.3,0.5,1.7C112.5,222.7,113,222.9,113.5,222.9z"/>
		<path class="st3" d="M117.6,223.6v-6h1v1.3c0.3-0.5,0.6-0.8,1-1.1s0.8-0.4,1.2-0.4c0.4,0,0.7,0.1,1,0.3c0.3,0.2,0.5,0.4,0.6,0.7
			c0.1,0.3,0.2,0.9,0.2,1.8v3.4h-1v-3.5c0-0.6,0-1-0.1-1.1c-0.1-0.2-0.2-0.3-0.3-0.5c-0.1-0.1-0.3-0.2-0.5-0.2
			c-0.4,0-0.7,0.2-1.1,0.5c-0.4,0.3-0.7,0.8-1,1.3v3.5H117.6z"/>
		<path class="st3" d="M129.2,223.3c-0.5,0.2-0.8,0.3-1,0.4c-0.2,0-0.4,0.1-0.6,0.1c-0.4,0-0.8-0.1-1.1-0.2s-0.6-0.4-0.8-0.7
			c-0.2-0.3-0.3-0.8-0.3-1.5v-2.4h-1.5v-0.8h1.5v-2.4h1v2.4h2.7v0.8h-2.7v2.4c0,0.5,0.1,0.8,0.2,1c0.1,0.2,0.3,0.3,0.5,0.4
			c0.2,0.1,0.4,0.1,0.7,0.1c0.5,0,1-0.2,1.5-0.5V223.3z"/>
		<path class="st3" d="M135.8,223.2c-0.8,0.4-1.6,0.6-2.3,0.6c-0.5,0-1-0.1-1.5-0.4c-0.4-0.3-0.8-0.7-1-1.2c-0.3-0.5-0.4-1-0.4-1.6
			c0-0.5,0.1-1.1,0.4-1.6s0.6-0.9,1-1.2s0.9-0.4,1.5-0.4c0.7,0,1.3,0.3,1.7,0.8c0.4,0.5,0.6,1.3,0.6,2.3v0.2h-4.1
			c0,0.4,0.1,0.8,0.3,1.1c0.2,0.3,0.4,0.6,0.7,0.8s0.6,0.3,1,0.3c0.6,0,1.4-0.2,2.1-0.6V223.2z M131.8,220h3v-0.1
			c0-0.5-0.1-0.9-0.4-1.2c-0.2-0.3-0.6-0.4-1-0.4c-0.4,0-0.8,0.1-1,0.4C132.2,219,131.9,219.4,131.8,220z"/>
		<path class="st3" d="M137.4,223.6v-6h1v1.3c0.3-0.5,0.6-0.8,1-1.1s0.8-0.4,1.2-0.4c0.4,0,0.7,0.1,1,0.3c0.3,0.2,0.5,0.4,0.6,0.7
			c0.1,0.3,0.2,0.9,0.2,1.8v3.4h-1v-3.5c0-0.6,0-1-0.1-1.1c-0.1-0.2-0.2-0.3-0.3-0.5c-0.1-0.1-0.3-0.2-0.5-0.2
			c-0.4,0-0.7,0.2-1.1,0.5c-0.4,0.3-0.7,0.8-1,1.3v3.5H137.4z"/>
		<path class="st3" d="M149.1,223.3c-0.5,0.2-0.8,0.3-1,0.4c-0.2,0-0.4,0.1-0.6,0.1c-0.4,0-0.8-0.1-1.1-0.2s-0.6-0.4-0.8-0.7
			c-0.2-0.3-0.3-0.8-0.3-1.5v-2.4h-1.5v-0.8h1.5v-2.4h1v2.4h2.7v0.8h-2.7v2.4c0,0.5,0.1,0.8,0.2,1c0.1,0.2,0.3,0.3,0.5,0.4
			c0.2,0.1,0.4,0.1,0.7,0.1c0.5,0,1-0.2,1.5-0.5V223.3z"/>
		<path class="st3" d="M162.3,223.3c-0.5,0.2-0.8,0.3-1,0.4c-0.2,0-0.4,0.1-0.6,0.1c-0.4,0-0.8-0.1-1.1-0.2s-0.6-0.4-0.8-0.7
			c-0.2-0.3-0.3-0.8-0.3-1.5v-2.4h-1.5v-0.8h1.5v-2.4h1v2.4h2.7v0.8h-2.7v2.4c0,0.5,0.1,0.8,0.2,1c0.1,0.2,0.3,0.3,0.5,0.4
			c0.2,0.1,0.4,0.1,0.7,0.1c0.5,0,1-0.2,1.5-0.5V223.3z"/>
		<path class="st3" d="M166.3,223.7c-0.9,0-1.5-0.3-2.1-0.9c-0.5-0.6-0.8-1.4-0.8-2.3s0.3-1.7,0.8-2.3s1.2-0.9,2.1-0.9
			c0.9,0,1.5,0.3,2.1,0.9s0.8,1.4,0.8,2.3s-0.3,1.7-0.8,2.3C167.8,223.4,167.2,223.7,166.3,223.7z M166.3,222.9c0.5,0,1-0.2,1.3-0.6
			c0.3-0.4,0.5-1,0.5-1.7c0-0.7-0.2-1.3-0.5-1.7c-0.3-0.4-0.7-0.6-1.3-0.6c-0.5,0-1,0.2-1.3,0.6c-0.3,0.4-0.5,1-0.5,1.7
			c0,0.7,0.2,1.3,0.5,1.7C165.3,222.7,165.8,222.9,166.3,222.9z"/>
		<path class="st3" d="M178.4,223.6v-4.7h-1.3v-0.8h1.3v-0.3c0-0.8,0.1-1.4,0.3-1.8s0.5-0.7,0.8-0.9c0.4-0.2,0.9-0.4,1.5-0.4
			c0.5,0,0.9,0,1.4,0.1v0.9c-0.5-0.2-1-0.3-1.4-0.3c-0.3,0-0.6,0.1-0.8,0.2s-0.4,0.3-0.6,0.6c-0.1,0.3-0.2,0.7-0.2,1.4v0.4h2.4v0.8
			h-2.4v4.7H178.4z"/>
		<path class="st3" d="M185.3,223.6v-5.2h-1.7v-0.8h2.7v5.2h1.7v0.8H185.3z M185.2,215.4c0-0.2,0.1-0.4,0.2-0.5
			c0.2-0.1,0.3-0.2,0.4-0.2c0.1,0,0.3,0.1,0.4,0.2c0.2,0.1,0.2,0.3,0.2,0.5c0,0.2-0.1,0.4-0.2,0.5c-0.2,0.1-0.3,0.2-0.4,0.2
			c-0.1,0-0.3-0.1-0.4-0.2C185.2,215.8,185.2,215.6,185.2,215.4z"/>
		<path class="st3" d="M191.9,223.6v-7.8h-1.8v-0.8h2.8v7.8h1.9v0.8H191.9z"/>
		<path class="st3" d="M201.8,223.2c-0.8,0.4-1.6,0.6-2.3,0.6c-0.5,0-1-0.1-1.5-0.4c-0.4-0.3-0.8-0.7-1-1.2s-0.4-1-0.4-1.6
			c0-0.5,0.1-1.1,0.4-1.6s0.6-0.9,1-1.2s0.9-0.4,1.5-0.4c0.7,0,1.3,0.3,1.7,0.8c0.4,0.5,0.6,1.3,0.6,2.3v0.2h-4.1
			c0,0.4,0.1,0.8,0.3,1.1s0.4,0.6,0.7,0.8s0.6,0.3,1,0.3c0.6,0,1.4-0.2,2.1-0.6V223.2z M197.8,220h3v-0.1c0-0.5-0.1-0.9-0.4-1.2
			c-0.2-0.3-0.6-0.4-1-0.4c-0.4,0-0.8,0.1-1,0.4C198.2,219,198,219.4,197.8,220z"/>
	</g>
	<path class="st4" d="M218,316H42c-1.1,0-2-0.9-2-2v-58c0-1.1,0.9-2,2-2h176c1.1,0,2,0.9,2,2v58C220,315.1,219.1,316,218,316z"/>
	<g>
		<path class="st3" d="M70.1,278l0-1.9l-1.4,1l-0.5-0.9l1.6-0.8l-1.6-0.8l0.5-0.9l1.4,1l0-1.9h1l0,1.9l1.4-1l0.5,0.9l-1.7,0.8
			l1.7,0.8l-0.5,0.9l-1.4-1l0,1.9H70.1z"/>
		<path class="st3" d="M75.2,281.6v-6h1v1.3c0.3-0.5,0.7-0.9,1.1-1.1c0.4-0.2,0.9-0.4,1.3-0.4c0.4,0,0.7,0.1,1.1,0.2v2.2h-1v-1.4
			c-0.2,0-0.3,0-0.4,0c-0.4,0-0.7,0.1-1.1,0.4s-0.7,0.7-1,1.3v3.5H75.2z"/>
		<path class="st3" d="M86.3,281.2c-0.8,0.4-1.6,0.6-2.3,0.6c-0.5,0-1-0.1-1.5-0.4c-0.4-0.3-0.8-0.7-1-1.2c-0.3-0.5-0.4-1-0.4-1.6
			c0-0.5,0.1-1.1,0.4-1.6s0.6-0.9,1-1.2s0.9-0.4,1.5-0.4c0.7,0,1.3,0.3,1.7,0.8c0.4,0.5,0.6,1.3,0.6,2.3v0.2h-4.1
			c0,0.4,0.1,0.8,0.3,1.1c0.2,0.3,0.4,0.6,0.7,0.8s0.6,0.3,1,0.3c0.6,0,1.4-0.2,2.1-0.6V281.2z M82.3,278h3v-0.1
			c0-0.5-0.1-0.9-0.4-1.2c-0.2-0.3-0.6-0.4-1-0.4c-0.4,0-0.8,0.1-1,0.4C82.6,277,82.4,277.4,82.3,278z"/>
		<path class="st3" d="M91.9,280.2c-0.3,0.5-0.7,0.9-1.1,1.1c-0.4,0.3-0.8,0.4-1.2,0.4c-0.5,0-1-0.2-1.4-0.6s-0.6-1.1-0.6-2
			c0-0.7,0.1-1.3,0.4-1.9c0.3-0.5,0.6-1,1.1-1.3c0.4-0.3,1-0.5,1.7-0.5c0.2,0,0.5,0,0.9,0.1c0.1,0,0.1,0,0.3,0h1v4.2
			c0,0.7,0.1,1.3,0.2,1.8h-1C92,281.3,91.9,280.8,91.9,280.2z M91.9,279v-2.6c-0.4-0.1-0.7-0.1-1-0.1c-0.6,0-1.1,0.2-1.5,0.7
			c-0.4,0.5-0.6,1.1-0.6,1.9c0,0.6,0.1,1,0.3,1.3c0.2,0.3,0.5,0.5,0.8,0.5c0.3,0,0.7-0.2,1-0.5C91.2,280,91.6,279.6,91.9,279z"/>
		<path class="st3" d="M98.5,280.2c-0.3,0.5-0.7,0.9-1.1,1.1c-0.4,0.3-0.8,0.4-1.2,0.4c-0.5,0-1-0.2-1.4-0.6s-0.6-1.1-0.6-2
			c0-0.7,0.1-1.3,0.4-1.9c0.3-0.5,0.6-1,1.1-1.3c0.4-0.3,1-0.5,1.7-0.5c0.2,0,0.5,0,0.9,0.1c0.1,0,0.1,0,0.3,0v-2.7h1v8.7h-1V280.2z
			 M98.5,279v-2.6c-0.4-0.1-0.7-0.1-1-0.1c-0.6,0-1.1,0.2-1.5,0.7c-0.4,0.5-0.6,1.1-0.6,1.9c0,0.6,0.1,1,0.3,1.3
			c0.2,0.3,0.5,0.5,0.8,0.5c0.3,0,0.7-0.2,1-0.5C97.9,280,98.2,279.6,98.5,279z"/>
		<path class="st3" d="M109.1,281.6v-4.7h-1.3v-0.8h1.3v-0.3c0-0.8,0.1-1.4,0.3-1.8s0.5-0.7,0.8-0.9c0.4-0.2,0.9-0.4,1.5-0.4
			c0.5,0,0.9,0,1.4,0.1v0.9c-0.5-0.2-1-0.3-1.4-0.3c-0.3,0-0.6,0.1-0.8,0.2s-0.4,0.3-0.6,0.6c-0.1,0.3-0.2,0.7-0.2,1.4v0.4h2.4v0.8
			h-2.4v4.7H109.1z"/>
		<path class="st3" d="M114.8,281.6v-6h1v1.3c0.3-0.5,0.7-0.9,1.1-1.1c0.4-0.2,0.9-0.4,1.3-0.4c0.4,0,0.7,0.1,1.1,0.2v2.2h-1v-1.4
			c-0.2,0-0.3,0-0.4,0c-0.4,0-0.7,0.1-1.1,0.4s-0.7,0.7-1,1.3v3.5H114.8z"/>
		<path class="st3" d="M123.4,281.7c-0.9,0-1.5-0.3-2.1-0.9c-0.5-0.6-0.8-1.4-0.8-2.3s0.3-1.7,0.8-2.3s1.2-0.9,2.1-0.9
			c0.9,0,1.5,0.3,2.1,0.9s0.8,1.4,0.8,2.3s-0.3,1.7-0.8,2.3C124.9,281.4,124.3,281.7,123.4,281.7z M123.4,280.9c0.5,0,1-0.2,1.3-0.6
			c0.3-0.4,0.5-1,0.5-1.7c0-0.7-0.2-1.3-0.5-1.7c-0.3-0.4-0.7-0.6-1.3-0.6c-0.5,0-1,0.2-1.3,0.6c-0.3,0.4-0.5,1-0.5,1.7
			c0,0.7,0.2,1.3,0.5,1.7C122.4,280.7,122.9,280.9,123.4,280.9z"/>
		<path class="st3" d="M127.1,281.6v-6h0.9v1.4c0.3-0.6,0.5-1,0.8-1.2c0.2-0.2,0.5-0.3,0.7-0.3c0.3,0,0.5,0.1,0.7,0.3
			c0.2,0.2,0.3,0.6,0.3,1v0.3c0.1-0.4,0.3-0.7,0.4-0.9c0.2-0.2,0.3-0.4,0.5-0.5c0.2-0.1,0.4-0.2,0.6-0.2c0.3,0,0.5,0.1,0.7,0.3
			s0.3,0.7,0.3,1.3v4.5H132v-4.1c0-0.3,0-0.6,0-0.7c0-0.1-0.1-0.2-0.1-0.3s-0.1-0.1-0.2-0.1c-0.2,0-0.4,0.1-0.6,0.4
			c-0.2,0.3-0.4,0.8-0.7,1.4v3.3h-0.8v-4.1c0-0.5-0.1-0.8-0.2-0.9s-0.2-0.1-0.3-0.1c-0.2,0-0.4,0.2-0.6,0.5
			c-0.2,0.3-0.4,0.7-0.6,1.2v3.5H127.1z"/>
		<path class="st3" d="M140.3,281.6v-6h0.9v1.4c0.3-0.6,0.5-1,0.8-1.2c0.2-0.2,0.5-0.3,0.7-0.3c0.3,0,0.5,0.1,0.7,0.3
			c0.2,0.2,0.3,0.6,0.3,1v0.3c0.1-0.4,0.3-0.7,0.4-0.9c0.2-0.2,0.3-0.4,0.5-0.5c0.2-0.1,0.4-0.2,0.6-0.2c0.3,0,0.5,0.1,0.7,0.3
			s0.3,0.7,0.3,1.3v4.5h-0.9v-4.1c0-0.3,0-0.6,0-0.7c0-0.1-0.1-0.2-0.1-0.3s-0.1-0.1-0.2-0.1c-0.2,0-0.4,0.1-0.6,0.4
			c-0.2,0.3-0.4,0.8-0.7,1.4v3.3h-0.8v-4.1c0-0.5-0.1-0.8-0.2-0.9s-0.2-0.1-0.3-0.1c-0.2,0-0.4,0.2-0.6,0.5
			c-0.2,0.3-0.4,0.7-0.6,1.2v3.5H140.3z"/>
		<path class="st3" d="M152.3,275.6v6h-1v-1.3c-0.3,0.5-0.7,0.9-1.1,1.1s-0.8,0.4-1.2,0.4c-0.4,0-0.7-0.1-1-0.3
			c-0.3-0.2-0.5-0.4-0.6-0.7c-0.1-0.3-0.2-0.9-0.2-1.8v-3.4h1v3.5c0,0.6,0,1,0.1,1.1c0.1,0.2,0.2,0.3,0.3,0.5
			c0.1,0.1,0.3,0.2,0.5,0.2c0.4,0,0.7-0.2,1.1-0.5c0.4-0.3,0.7-0.7,1-1.3v-3.5H152.3z"/>
		<path class="st3" d="M155.5,281.6v-7.8h-1.8v-0.8h2.8v7.8h1.9v0.8H155.5z"/>
		<path class="st3" d="M165.6,281.3c-0.5,0.2-0.8,0.3-1,0.4c-0.2,0-0.4,0.1-0.6,0.1c-0.4,0-0.8-0.1-1.1-0.2s-0.6-0.4-0.8-0.7
			c-0.2-0.3-0.3-0.8-0.3-1.5v-2.4h-1.5v-0.8h1.5v-2.4h1v2.4h2.7v0.8h-2.7v2.4c0,0.5,0.1,0.8,0.2,1c0.1,0.2,0.3,0.3,0.5,0.4
			c0.2,0.1,0.4,0.1,0.7,0.1c0.5,0,1-0.2,1.5-0.5V281.3z"/>
		<path class="st3" d="M168.8,281.6v-5.2h-1.7v-0.8h2.7v5.2h1.7v0.8H168.8z M168.7,273.4c0-0.2,0.1-0.4,0.2-0.5
			c0.2-0.1,0.3-0.2,0.4-0.2c0.1,0,0.3,0.1,0.4,0.2c0.2,0.1,0.2,0.3,0.2,0.5c0,0.2-0.1,0.4-0.2,0.5c-0.2,0.1-0.3,0.2-0.4,0.2
			c-0.1,0-0.3-0.1-0.4-0.2C168.7,273.8,168.7,273.6,168.7,273.4z"/>
		<path class="st3" d="M174.7,276.9c0.3-0.5,0.7-0.9,1.1-1.1c0.4-0.3,0.8-0.4,1.2-0.4c0.5,0,1,0.2,1.4,0.6s0.6,1.1,0.6,2
			c0,0.7-0.1,1.3-0.4,1.9c-0.3,0.5-0.6,1-1.1,1.3c-0.4,0.3-1,0.5-1.6,0.5c-0.2,0-0.5,0-0.9-0.1c-0.1,0-0.1,0-0.3,0v2.3h-1v-8.3h1
			V276.9z M174.7,278.1v2.6c0.4,0.1,0.7,0.1,1,0.1c0.6,0,1.1-0.2,1.5-0.7c0.4-0.5,0.6-1.1,0.6-1.9c0-0.6-0.1-1-0.3-1.3
			c-0.2-0.3-0.5-0.5-0.8-0.5c-0.3,0-0.7,0.2-1,0.5C175.3,277.2,175,277.6,174.7,278.1z"/>
		<path class="st3" d="M182,281.6v-7.8h-1.8v-0.8h2.8v7.8h1.9v0.8H182z"/>
		<path class="st3" d="M191.9,281.2c-0.8,0.4-1.6,0.6-2.3,0.6c-0.5,0-1-0.1-1.5-0.4c-0.4-0.3-0.8-0.7-1-1.2c-0.3-0.5-0.4-1-0.4-1.6
			c0-0.5,0.1-1.1,0.4-1.6s0.6-0.9,1-1.2s0.9-0.4,1.5-0.4c0.7,0,1.3,0.3,1.7,0.8c0.4,0.5,0.6,1.3,0.6,2.3v0.2h-4.1
			c0,0.4,0.1,0.8,0.3,1.1s0.4,0.6,0.7,0.8s0.6,0.3,1,0.3c0.6,0,1.4-0.2,2.1-0.6V281.2z M187.9,278h3v-0.1c0-0.5-0.1-0.9-0.4-1.2
			c-0.2-0.3-0.6-0.4-1-0.4c-0.4,0-0.8,0.1-1,0.4C188.3,277,188.1,277.4,187.9,278z"/>
		<path class="st3" d="M107.8,294.5v-1.1c0.4,0.3,0.8,0.4,1.3,0.6c0.4,0.1,0.8,0.2,1.1,0.2c0.5,0,0.9-0.1,1.1-0.2
			c0.2-0.2,0.3-0.4,0.3-0.6c0-0.2-0.1-0.3-0.2-0.4s-0.4-0.3-0.8-0.4l-0.3-0.1l-0.7-0.3c-0.7-0.3-1.2-0.6-1.4-0.8
			c-0.2-0.2-0.3-0.5-0.3-0.9c0-0.5,0.2-0.9,0.6-1.2s1-0.5,1.9-0.5c0.6,0,1.2,0.1,1.8,0.3v0.9c-0.7-0.2-1.3-0.4-1.9-0.4
			c-0.4,0-0.8,0.1-1,0.2c-0.2,0.1-0.4,0.3-0.4,0.6c0,0.2,0.1,0.4,0.3,0.5c0.2,0.1,0.5,0.3,1,0.4l0.7,0.2c0.6,0.2,1.1,0.5,1.3,0.7
			c0.2,0.3,0.4,0.6,0.4,1c0,0.5-0.2,0.9-0.6,1.3c-0.4,0.3-1,0.5-1.9,0.5C109.4,294.9,108.6,294.8,107.8,294.5z"/>
		<path class="st3" d="M116.8,294.9c-0.9,0-1.5-0.3-2.1-0.9c-0.5-0.6-0.8-1.4-0.8-2.3s0.3-1.7,0.8-2.3s1.2-0.9,2.1-0.9
			c0.9,0,1.5,0.3,2.1,0.9s0.8,1.4,0.8,2.3s-0.3,1.7-0.8,2.3C118.3,294.6,117.7,294.9,116.8,294.9z M116.8,294.1c0.5,0,1-0.2,1.3-0.6
			c0.3-0.4,0.5-1,0.5-1.7c0-0.7-0.2-1.3-0.5-1.7c-0.3-0.4-0.7-0.6-1.3-0.6c-0.5,0-1,0.2-1.3,0.6c-0.3,0.4-0.5,1-0.5,1.7
			c0,0.7,0.2,1.3,0.5,1.7C115.8,293.9,116.3,294.1,116.8,294.1z"/>
		<path class="st3" d="M125.9,288.8v6h-1v-1.3c-0.3,0.5-0.7,0.9-1.1,1.1s-0.8,0.4-1.2,0.4c-0.4,0-0.7-0.1-1-0.3
			c-0.3-0.2-0.5-0.4-0.6-0.7c-0.1-0.3-0.2-0.9-0.2-1.8v-3.4h1v3.5c0,0.6,0,1,0.1,1.1c0.1,0.2,0.2,0.3,0.3,0.5
			c0.1,0.1,0.3,0.2,0.5,0.2c0.4,0,0.7-0.2,1.1-0.5c0.4-0.3,0.7-0.7,1-1.3v-3.5H125.9z"/>
		<path class="st3" d="M128,294.8v-6h1v1.3c0.3-0.5,0.7-0.9,1.1-1.1c0.4-0.2,0.9-0.4,1.3-0.4c0.4,0,0.7,0.1,1.1,0.2v2.2h-1v-1.4
			c-0.2,0-0.3,0-0.4,0c-0.4,0-0.7,0.1-1.1,0.4s-0.7,0.7-1,1.3v3.5H128z"/>
		<path class="st3" d="M139.2,294.6c-0.7,0.2-1.3,0.3-1.9,0.3c-0.6,0-1.1-0.1-1.6-0.4c-0.5-0.3-0.8-0.7-1.1-1.1
			c-0.3-0.5-0.4-1-0.4-1.6c0-0.9,0.3-1.7,0.9-2.3c0.6-0.6,1.3-0.9,2.1-0.9c0.6,0,1.3,0.1,2,0.3v1c-0.7-0.3-1.3-0.5-1.9-0.5
			c-0.4,0-0.7,0.1-1,0.3c-0.3,0.2-0.6,0.5-0.7,0.8s-0.3,0.8-0.3,1.2c0,0.5,0.2,1.1,0.5,1.5c0.3,0.5,0.9,0.7,1.6,0.7
			c0.2,0,0.4,0,0.6,0c0.2,0,0.6-0.1,1.2-0.3V294.6z"/>
		<path class="st3" d="M145.7,294.4c-0.8,0.4-1.6,0.6-2.3,0.6c-0.5,0-1-0.1-1.5-0.4c-0.4-0.3-0.8-0.7-1-1.2c-0.3-0.5-0.4-1-0.4-1.6
			c0-0.5,0.1-1.1,0.4-1.6s0.6-0.9,1-1.2s0.9-0.4,1.5-0.4c0.7,0,1.3,0.3,1.7,0.8c0.4,0.5,0.6,1.3,0.6,2.3v0.2h-4.1
			c0,0.4,0.1,0.8,0.3,1.1c0.2,0.3,0.4,0.6,0.7,0.8s0.6,0.3,1,0.3c0.6,0,1.4-0.2,2.1-0.6V294.4z M141.7,291.2h3v-0.1
			c0-0.5-0.1-0.9-0.4-1.2c-0.2-0.3-0.6-0.4-1-0.4c-0.4,0-0.8,0.1-1,0.4C142.1,290.2,141.9,290.6,141.7,291.2z"/>
		<path class="st3" d="M147.4,294.5v-1.1c0.4,0.3,0.8,0.4,1.3,0.6c0.4,0.1,0.8,0.2,1.1,0.2c0.5,0,0.9-0.1,1.1-0.2
			c0.2-0.2,0.3-0.4,0.3-0.6c0-0.2-0.1-0.3-0.2-0.4s-0.4-0.3-0.8-0.4l-0.3-0.1l-0.7-0.3c-0.7-0.3-1.2-0.6-1.4-0.8
			c-0.2-0.2-0.3-0.5-0.3-0.9c0-0.5,0.2-0.9,0.6-1.2s1-0.5,1.9-0.5c0.6,0,1.2,0.1,1.8,0.3v0.9c-0.7-0.2-1.3-0.4-1.9-0.4
			c-0.4,0-0.8,0.1-1,0.2c-0.2,0.1-0.4,0.3-0.4,0.6c0,0.2,0.1,0.4,0.3,0.5c0.2,0.1,0.5,0.3,1,0.4l0.7,0.2c0.6,0.2,1.1,0.5,1.3,0.7
			c0.2,0.3,0.4,0.6,0.4,1c0,0.5-0.2,0.9-0.6,1.3c-0.4,0.3-1,0.5-1.9,0.5C149,294.9,148.2,294.8,147.4,294.5z"/>
	</g>
	<g>
		<path class="st3" d="M480.1,234l0-1.9l-1.4,1l-0.5-0.9l1.6-0.8l-1.6-0.8l0.5-0.9l1.4,1l0-1.9h1l0,1.9l1.4-1l0.5,0.9l-1.7,0.8
			l1.7,0.8l-0.5,0.9l-1.4-1l0,1.9H480.1z"/>
		<path class="st3" d="M486.1,237.6v-4.7h-1.3v-0.8h1.3v-0.3c0-0.8,0.1-1.4,0.3-1.8c0.2-0.4,0.5-0.7,0.8-0.9
			c0.4-0.2,0.9-0.4,1.5-0.4c0.5,0,0.9,0,1.4,0.1v0.9c-0.5-0.2-1-0.3-1.4-0.3c-0.3,0-0.6,0.1-0.8,0.2c-0.2,0.1-0.4,0.3-0.6,0.6
			c-0.1,0.3-0.2,0.7-0.2,1.4v0.4h2.4v0.8h-2.4v4.7H486.1z"/>
		<path class="st3" d="M493.8,237.7c-0.9,0-1.5-0.3-2.1-0.9c-0.5-0.6-0.8-1.4-0.8-2.3s0.3-1.7,0.8-2.3c0.5-0.6,1.2-0.9,2.1-0.9
			c0.9,0,1.5,0.3,2.1,0.9c0.5,0.6,0.8,1.4,0.8,2.3s-0.3,1.7-0.8,2.3C495.3,237.4,494.6,237.7,493.8,237.7z M493.8,236.9
			c0.5,0,1-0.2,1.3-0.6s0.5-1,0.5-1.7c0-0.7-0.2-1.3-0.5-1.7s-0.7-0.6-1.3-0.6c-0.5,0-1,0.2-1.3,0.6c-0.3,0.4-0.5,1-0.5,1.7
			c0,0.7,0.2,1.3,0.5,1.7C492.8,236.7,493.3,236.9,493.8,236.9z"/>
		<path class="st3" d="M498.4,237.6v-6h1v1.3c0.3-0.5,0.7-0.9,1.1-1.1c0.4-0.2,0.9-0.4,1.3-0.4c0.4,0,0.7,0.1,1.1,0.2v2.2h-1v-1.4
			c-0.2,0-0.3,0-0.4,0c-0.4,0-0.7,0.1-1.1,0.4c-0.4,0.3-0.7,0.7-1,1.3v3.5H498.4z"/>
		<path class="st3" d="M504.1,237.6v-6h0.9v1.4c0.3-0.6,0.5-1,0.8-1.2s0.5-0.3,0.7-0.3c0.3,0,0.5,0.1,0.7,0.3c0.2,0.2,0.3,0.6,0.3,1
			v0.3c0.1-0.4,0.3-0.7,0.4-0.9c0.2-0.2,0.3-0.4,0.5-0.5c0.2-0.1,0.4-0.2,0.6-0.2c0.3,0,0.5,0.1,0.7,0.3s0.3,0.7,0.3,1.3v4.5H509
			v-4.1c0-0.3,0-0.6,0-0.7c0-0.1-0.1-0.2-0.1-0.3s-0.1-0.1-0.2-0.1c-0.2,0-0.4,0.1-0.6,0.4c-0.2,0.3-0.4,0.8-0.7,1.4v3.3h-0.8v-4.1
			c0-0.5-0.1-0.8-0.2-0.9c-0.1-0.1-0.2-0.1-0.3-0.1c-0.2,0-0.4,0.2-0.6,0.5s-0.4,0.7-0.6,1.2v3.5H504.1z"/>
		<path class="st3" d="M515.1,236.2c-0.3,0.5-0.7,0.9-1.1,1.1c-0.4,0.3-0.8,0.4-1.2,0.4c-0.5,0-1-0.2-1.4-0.6s-0.6-1.1-0.6-2
			c0-0.7,0.1-1.3,0.4-1.9c0.3-0.5,0.6-1,1.1-1.3c0.4-0.3,1-0.5,1.7-0.5c0.2,0,0.5,0,0.9,0.1c0.1,0,0.1,0,0.3,0h1v4.2
			c0,0.7,0.1,1.3,0.2,1.8h-1C515.2,237.3,515.1,236.8,515.1,236.2z M515.1,235v-2.6c-0.4-0.1-0.7-0.1-1-0.1c-0.6,0-1.1,0.2-1.5,0.7
			c-0.4,0.5-0.6,1.1-0.6,1.9c0,0.6,0.1,1,0.3,1.3c0.2,0.3,0.5,0.5,0.8,0.5c0.3,0,0.7-0.2,1-0.5C514.4,236,514.8,235.6,515.1,235z"/>
		<path class="st3" d="M522.7,237.3c-0.5,0.2-0.8,0.3-1,0.4c-0.2,0-0.4,0.1-0.6,0.1c-0.4,0-0.8-0.1-1.1-0.2
			c-0.3-0.2-0.6-0.4-0.8-0.7c-0.2-0.3-0.3-0.8-0.3-1.5v-2.4h-1.5v-0.8h1.5v-2.4h1v2.4h2.7v0.8h-2.7v2.4c0,0.5,0.1,0.8,0.2,1
			c0.1,0.2,0.3,0.3,0.5,0.4c0.2,0.1,0.4,0.1,0.7,0.1c0.5,0,1-0.2,1.5-0.5V237.3z"/>
		<path class="st3" d="M533.4,237.7c-0.9,0-1.5-0.3-2.1-0.9c-0.5-0.6-0.8-1.4-0.8-2.3s0.3-1.7,0.8-2.3c0.5-0.6,1.2-0.9,2.1-0.9
			c0.9,0,1.5,0.3,2.1,0.9c0.5,0.6,0.8,1.4,0.8,2.3s-0.3,1.7-0.8,2.3C534.9,237.4,534.3,237.7,533.4,237.7z M533.4,236.9
			c0.5,0,1-0.2,1.3-0.6s0.5-1,0.5-1.7c0-0.7-0.2-1.3-0.5-1.7s-0.7-0.6-1.3-0.6c-0.5,0-1,0.2-1.3,0.6c-0.3,0.4-0.5,1-0.5,1.7
			c0,0.7,0.2,1.3,0.5,1.7C532.4,236.7,532.9,236.9,533.4,236.9z"/>
		<path class="st3" d="M542.5,231.6v6h-1v-1.3c-0.3,0.5-0.7,0.9-1.1,1.1c-0.4,0.2-0.8,0.4-1.2,0.4c-0.4,0-0.7-0.1-1-0.3
			c-0.3-0.2-0.5-0.4-0.6-0.7c-0.1-0.3-0.2-0.9-0.2-1.8v-3.4h1v3.5c0,0.6,0,1,0.1,1.1c0.1,0.2,0.2,0.3,0.3,0.5
			c0.1,0.1,0.3,0.2,0.5,0.2c0.4,0,0.7-0.2,1.1-0.5c0.4-0.3,0.7-0.7,1-1.3v-3.5H542.5z"/>
		<path class="st3" d="M549.1,237.3c-0.5,0.2-0.8,0.3-1,0.4c-0.2,0-0.4,0.1-0.6,0.1c-0.4,0-0.8-0.1-1.1-0.2
			c-0.3-0.2-0.6-0.4-0.8-0.7c-0.2-0.3-0.3-0.8-0.3-1.5v-2.4h-1.5v-0.8h1.5v-2.4h1v2.4h2.7v0.8h-2.7v2.4c0,0.5,0.1,0.8,0.2,1
			c0.1,0.2,0.3,0.3,0.5,0.4c0.2,0.1,0.4,0.1,0.7,0.1c0.5,0,1-0.2,1.5-0.5V237.3z"/>
		<path class="st3" d="M551.7,232.9c0.3-0.5,0.7-0.9,1.1-1.1c0.4-0.3,0.8-0.4,1.2-0.4c0.5,0,1,0.2,1.4,0.6c0.4,0.4,0.6,1.1,0.6,2
			c0,0.7-0.1,1.3-0.4,1.9c-0.3,0.5-0.6,1-1.1,1.3c-0.4,0.3-1,0.5-1.6,0.5c-0.2,0-0.5,0-0.9-0.1c-0.1,0-0.1,0-0.3,0v2.3h-1v-8.3h1
			V232.9z M551.7,234.1v2.6c0.4,0.1,0.7,0.1,1,0.1c0.6,0,1.1-0.2,1.5-0.7c0.4-0.5,0.6-1.1,0.6-1.9c0-0.6-0.1-1-0.3-1.3
			c-0.2-0.3-0.5-0.5-0.8-0.5c-0.3,0-0.7,0.2-1,0.5C552.3,233.2,552,233.6,551.7,234.1z"/>
		<path class="st3" d="M562.3,231.6v6h-1v-1.3c-0.3,0.5-0.7,0.9-1.1,1.1c-0.4,0.2-0.8,0.4-1.2,0.4c-0.4,0-0.7-0.1-1-0.3
			c-0.3-0.2-0.5-0.4-0.6-0.7c-0.1-0.3-0.2-0.9-0.2-1.8v-3.4h1v3.5c0,0.6,0,1,0.1,1.1c0.1,0.2,0.2,0.3,0.3,0.5s0.3,0.2,0.5,0.2
			c0.4,0,0.7-0.2,1.1-0.5c0.4-0.3,0.7-0.7,1-1.3v-3.5H562.3z"/>
		<path class="st3" d="M569,237.3c-0.5,0.2-0.8,0.3-1,0.4c-0.2,0-0.4,0.1-0.6,0.1c-0.4,0-0.8-0.1-1.1-0.2c-0.3-0.2-0.6-0.4-0.8-0.7
			c-0.2-0.3-0.3-0.8-0.3-1.5v-2.4h-1.5v-0.8h1.5v-2.4h1v2.4h2.7v0.8h-2.7v2.4c0,0.5,0.1,0.8,0.2,1c0.1,0.2,0.3,0.3,0.5,0.4
			s0.4,0.1,0.7,0.1c0.5,0,1-0.2,1.5-0.5V237.3z"/>
		<path class="st3" d="M582.2,237.3c-0.5,0.2-0.8,0.3-1,0.4c-0.2,0-0.4,0.1-0.6,0.1c-0.4,0-0.8-0.1-1.1-0.2
			c-0.3-0.2-0.6-0.4-0.8-0.7c-0.2-0.3-0.3-0.8-0.3-1.5v-2.4h-1.5v-0.8h1.5v-2.4h1v2.4h2.7v0.8h-2.7v2.4c0,0.5,0.1,0.8,0.2,1
			c0.1,0.2,0.3,0.3,0.5,0.4s0.4,0.1,0.7,0.1c0.5,0,1-0.2,1.5-0.5V237.3z"/>
		<path class="st3" d="M588.7,237.2c-0.8,0.4-1.6,0.6-2.3,0.6c-0.5,0-1-0.1-1.5-0.4c-0.4-0.3-0.8-0.7-1-1.2s-0.4-1-0.4-1.6
			c0-0.5,0.1-1.1,0.4-1.6c0.2-0.5,0.6-0.9,1-1.2c0.4-0.3,0.9-0.4,1.5-0.4c0.7,0,1.3,0.3,1.7,0.8c0.4,0.5,0.6,1.3,0.6,2.3v0.2h-4.1
			c0,0.4,0.1,0.8,0.3,1.1c0.2,0.3,0.4,0.6,0.7,0.8c0.3,0.2,0.6,0.3,1,0.3c0.6,0,1.4-0.2,2.1-0.6V237.2z M584.7,234h3v-0.1
			c0-0.5-0.1-0.9-0.4-1.2c-0.2-0.3-0.6-0.4-1-0.4c-0.4,0-0.8,0.1-1,0.4C585.1,233,584.9,233.4,584.7,234z"/>
		<path class="st3" d="M591,237.6h-1.2l2.4-3.1l-2.2-2.9h1.3l1.6,2l1.5-2h1.1l-2.1,2.8l2.5,3.2h-1.3l-1.8-2.4L591,237.6z"/>
		<path class="st3" d="M602,237.3c-0.5,0.2-0.8,0.3-1,0.4c-0.2,0-0.4,0.1-0.6,0.1c-0.4,0-0.8-0.1-1.2-0.2c-0.3-0.2-0.6-0.4-0.8-0.7
			c-0.2-0.3-0.3-0.8-0.3-1.5v-2.4h-1.5v-0.8h1.5v-2.4h1v2.4h2.7v0.8h-2.7v2.4c0,0.5,0.1,0.8,0.2,1c0.1,0.2,0.3,0.3,0.5,0.4
			s0.4,0.1,0.7,0.1c0.5,0,1-0.2,1.5-0.5V237.3z"/>
	</g>
	<g>
		<g>
			<line class="st1" x1="220" y1="94.5" x2="243.9" y2="94.5"/>
			<g>
				<polygon class="st5" points="240.6,98.6 239.9,97.9 243.5,94.5 239.9,91.1 240.6,90.4 245,94.5 				"/>
			</g>
		</g>
	</g>
	<g>
		<g>
			<line class="st1" x1="425" y1="94.5" x2="448.9" y2="94.5"/>
			<g>
				<polygon class="st5" points="445.6,98.6 444.9,97.9 448.5,94.5 444.9,91.1 445.6,90.4 450,94.5 				"/>
			</g>
		</g>
	</g>
</g>
</svg>
